<svg xmlns="http://www.w3.org/2000/svg" viewBox="0 0 765 765"><defs><style>.cls-1{fill:#fff;stroke:#000;stroke-miterlimit:10;stroke-width:10px;}</style></defs><g id="Layer_9" data-name="Layer 9"><ellipse class="cls-1" cx="525.97" cy="232.77" rx="145" ry="87" transform="translate(-10.92 439.12) rotate(-44.9)"/><ellipse class="cls-1" cx="229.86" cy="529.22" rx="145" ry="87" transform="translate(-306.5 316.56) rotate(-44.9)"/><ellipse class="cls-1" cx="524.66" cy="532.52" rx="87" ry="145" transform="translate(-222.88 527.12) rotate(-45.01)"/><ellipse class="cls-1" cx="227.62" cy="237.01" rx="87" ry="145" transform="translate(-100.93 230.43) rotate(-45.01)"/><ellipse class="cls-1" cx="564.42" cy="378.59" rx="132.83" ry="79.7" transform="translate(-3.21 4.83) rotate(-0.49)"/><ellipse class="cls-1" cx="180.61" cy="382.78" rx="132.83" ry="79.7" transform="translate(-3.26 1.55) rotate(-0.49)"/><ellipse class="cls-1" cx="371.42" cy="573.92" rx="79.7" ry="132.83" transform="translate(-6.03 3.95) rotate(-0.6)"/><ellipse class="cls-1" cx="366.45" cy="190.11" rx="79.7" ry="132.83" transform="translate(-1.99 3.88) rotate(-0.6)"/><ellipse class="cls-1" cx="493.97" cy="376.35" rx="51.09" ry="85.15" transform="translate(106.13 861.35) rotate(-88.65)"/><ellipse class="cls-1" cx="247.96" cy="371.16" rx="51.09" ry="85.15" transform="translate(-128.92 610.34) rotate(-88.65)"/><ellipse class="cls-1" cx="366.3" cy="497.54" rx="85.15" ry="51.09" transform="translate(-138.99 853.08) rotate(-88.77)"/><ellipse class="cls-1" cx="370.99" cy="251.52" rx="85.15" ry="51.09" transform="translate(111.57 617.03) rotate(-88.77)"/><ellipse class="cls-1" cx="447.74" cy="451.89" rx="46.8" ry="78.01" transform="matrix(0.72, -0.7, 0.7, 0.72, -188.3, 440.6)"/><ellipse class="cls-1" cx="290.07" cy="290.79" rx="46.8" ry="78.01" transform="translate(-120.62 284.89) rotate(-44.25)"/><ellipse class="cls-1" cx="286.5" cy="449.36" rx="78.01" ry="46.8" transform="translate(-232.52 328.43) rotate(-44.36)"/><ellipse class="cls-1" cx="447.27" cy="291.36" rx="78.01" ry="46.8" transform="translate(-76.21 395.8) rotate(-44.36)"/><ellipse class="cls-1" cx="410.49" cy="327.62" rx="43.05" ry="25.83" transform="translate(-111.54 385.26) rotate(-44.9)"/><ellipse class="cls-1" cx="322.58" cy="415.63" rx="43.05" ry="25.83" transform="translate(-199.29 348.88) rotate(-44.9)"/><ellipse class="cls-1" cx="410.1" cy="416.61" rx="25.83" ry="43.05" transform="translate(-174.48 412.12) rotate(-45.01)"/><ellipse class="cls-1" cx="321.91" cy="328.88" rx="25.83" ry="43.05" transform="translate(-138.27 324.04) rotate(-45.01)"/><ellipse class="cls-1" cx="421.9" cy="370.91" rx="39.44" ry="23.66" transform="translate(-3.15 3.61) rotate(-0.49)"/><ellipse class="cls-1" cx="307.95" cy="372.16" rx="39.44" ry="23.66" transform="translate(-3.16 2.64) rotate(-0.49)"/><ellipse class="cls-1" cx="364.6" cy="428.9" rx="23.66" ry="39.44" transform="translate(-4.51 3.87) rotate(-0.6)"/><ellipse class="cls-1" cx="363.13" cy="314.96" rx="23.66" ry="39.44" transform="translate(-3.3 3.85) rotate(-0.6)"/><ellipse class="cls-1" cx="400.98" cy="370.25" rx="15.17" ry="25.28" transform="translate(21.43 762.43) rotate(-88.65)"/><ellipse class="cls-1" cx="327.95" cy="368.71" rx="15.17" ry="25.28" transform="matrix(0.02, -1, 1, 0.02, -48.35, 687.91)"/><ellipse class="cls-1" cx="363.08" cy="406.23" rx="25.28" ry="15.17" transform="translate(-50.84 760.51) rotate(-88.77)"/><ellipse class="cls-1" cx="364.47" cy="333.19" rx="25.28" ry="15.17" transform="translate(23.55 690.43) rotate(-88.77)"/><ellipse class="cls-1" cx="387.26" cy="392.67" rx="13.9" ry="23.16" transform="translate(-164.14 381.6) rotate(-44.25)"/><ellipse class="cls-1" cx="340.45" cy="344.85" rx="13.9" ry="23.16" transform="translate(-144.04 335.38) rotate(-44.25)"/><ellipse class="cls-1" cx="339.39" cy="391.92" rx="23.16" ry="13.9" transform="translate(-177.28 349.04) rotate(-44.36)"/><ellipse class="cls-1" cx="387.12" cy="345.01" rx="23.16" ry="13.9" transform="translate(-130.88 369.04) rotate(-44.36)"/></g></svg>