<svg xmlns="http://www.w3.org/2000/svg" viewBox="0 0 1600 900"><defs><style>.cls-1,.cls-10{fill:#47d3ff;}.cls-1{opacity:0.35;}.cls-17,.cls-2,.cls-5{fill:none;}.cls-2{stroke:#dbdfe4;}.cls-2,.cls-5{stroke-miterlimit:10;}.cls-3{fill:#dbdfe4;}.cls-4{fill:#d4d5d4;}.cls-5{stroke:#c0c1c0;}.cls-6{fill:#dee5e7;}.cls-7{fill:#cad1d3;}.cls-8{fill:#fff;}.cls-9{opacity:0.58;}.cls-11{opacity:0.2;}.cls-12{fill:#3c3c3b;}.cls-13{fill:#f8b133;}.cls-14{fill:#f29100;}.cls-15{fill:#35a8e0;}.cls-16{fill:#39b54a;}.cls-18,.cls-21{fill:gray;}.cls-19{fill:#999;}.cls-20{fill:#e20613;}.cls-21{opacity:0.61;}.cls-22{fill:#2f277e;}</style></defs><g id="Layer_2" data-name="Layer 2"><rect class="cls-1" x="1" width="1600" height="450"/></g><g id="Layer_3" data-name="Layer 3"><line class="cls-2" x1="528.53" y1="-47.03" x2="798.48" y2="353.67"/><line class="cls-2" x1="536.05" y1="-57.88" x2="806" y2="342.81"/><line class="cls-2" x1="530.68" y1="-87.5" x2="800.62" y2="313.2"/><line class="cls-2" x1="538.2" y1="-98.35" x2="808.14" y2="302.34"/><line class="cls-2" x1="575.27" y1="-66.5" x2="845.21" y2="334.19"/><line class="cls-2" x1="582.79" y1="-77.36" x2="852.73" y2="323.34"/><line class="cls-2" x1="577.41" y1="-106.97" x2="847.36" y2="293.72"/><line class="cls-2" x1="584.93" y1="-117.83" x2="854.88" y2="282.87"/><line class="cls-2" x1="604.67" y1="-111.06" x2="874.61" y2="289.63"/><line class="cls-2" x1="612.19" y1="-121.92" x2="882.13" y2="278.77"/><line class="cls-2" x1="606.81" y1="-151.54" x2="876.75" y2="249.16"/><line class="cls-2" x1="614.33" y1="-162.39" x2="884.27" y2="238.3"/><line class="cls-2" x1="740.5" y1="0.5" x2="921.35" y2="270.15"/><line class="cls-2" x1="755.5" y1="-0.5" x2="928.87" y2="259.3"/><line class="cls-2" x1="770.5" y1="0.5" x2="923.49" y2="229.68"/><line class="cls-2" x1="784.5" y1="0.5" x2="931.01" y2="218.83"/><line class="cls-2" x1="799.5" y1="-0.5" x2="987.99" y2="280.54"/><line class="cls-2" x1="815.5" y1="-0.5" x2="995.51" y2="269.69"/><line class="cls-2" x1="830.5" y1="0.5" x2="990.13" y2="240.07"/><line class="cls-2" x1="845.5" y1="-0.5" x2="997.65" y2="229.22"/><line class="cls-2" x1="860.5" y1="0.5" x2="1034.73" y2="261.07"/><line class="cls-2" x1="875.5" y1="0.5" x2="1042.25" y2="250.21"/><line class="cls-2" x1="889.5" y1="-0.5" x2="1036.87" y2="220.6"/><line class="cls-2" x1="903.5" y1="-0.5" x2="1044.39" y2="209.74"/><line class="cls-3" x1="903.5" y1="-0.5" x2="1044.39" y2="209.74"/><line class="cls-2" x1="919.5" y1="1.5" x2="1064.12" y2="216.5"/><line class="cls-2" x1="932.5" y1="0.5" x2="1069.64" y2="205.65"/><line class="cls-2" x1="946.5" y1="0.5" x2="1066.27" y2="176.03"/><line class="cls-2" x1="963.5" y1="0.5" x2="1073.79" y2="165.18"/><line class="cls-2" x1="977.5" y1="0.5" x2="1110.86" y2="197.03"/><line class="cls-2" x1="1143.5" y1="0.5" x2="1330.64" y2="280.23"/><line class="cls-2" x1="1156.5" y1="0.5" x2="1350.37" y2="286.99"/><line class="cls-2" x1="1172.5" y1="-0.5" x2="1357.89" y2="276.14"/><line class="cls-2" x1="1187.5" y1="-0.5" x2="1352.51" y2="246.52"/><line class="cls-2" x1="1200.5" y1="-0.5" x2="1360.03" y2="235.67"/><line class="cls-2" x1="1216.5" y1="0.5" x2="1397.11" y2="267.52"/><line class="cls-2" x1="1232.5" y1="0.5" x2="1404.63" y2="256.66"/><line class="cls-2" x1="1247.5" y1="0.5" x2="1399.25" y2="227.05"/><line class="cls-2" x1="1262.5" y1="0.5" x2="1406.77" y2="216.19"/><line class="cls-2" x1="1278.5" y1="0.5" x2="1489.18" y2="315.35"/><line class="cls-2" x1="1293.5" y1="-0.5" x2="1496.7" y2="304.49"/><line class="cls-2" x1="1308.5" y1="0.5" x2="1491.33" y2="274.88"/><line class="cls-2" x1="1322.5" y1="0.5" x2="1498.85" y2="264.02"/><line class="cls-2" x1="1337.5" y1="0.5" x2="1535.92" y2="295.87"/><line class="cls-2" x1="1352.5" y1="0.5" x2="1543.44" y2="285.01"/><line class="cls-2" x1="1368.5" y1="0.5" x2="1538.06" y2="255.4"/><line class="cls-2" x1="1382.5" y1="0.5" x2="1545.58" y2="244.54"/><line class="cls-2" x1="1397.5" y1="0.5" x2="1565.32" y2="251.31"/><line class="cls-2" x1="1410.5" y1="0.5" x2="1572.84" y2="240.45"/><line class="cls-2" x1="1425.5" y1="0.5" x2="1567.46" y2="210.84"/><line class="cls-2" x1="1441.5" y1="0.5" x2="1574.98" y2="199.98"/><line class="cls-2" x1="1456.5" y1="0.5" x2="1600.5" y2="213.5"/><line class="cls-2" x1="1470.5" y1="0.5" x2="1600.5" y2="193.5"/><line class="cls-2" x1="1487.5" y1="0.5" x2="1600.5" y2="169.5"/><line class="cls-2" x1="1502.5" y1="0.5" x2="1600.5" y2="146.5"/><line class="cls-2" x1="1517.5" y1="0.5" x2="1600.5" y2="125.5"/><line class="cls-2" x1="1532.5" y1="0.5" x2="1600.5" y2="103.5"/><line class="cls-2" x1="1547.5" y1="0.5" x2="1600.5" y2="82.5"/><line class="cls-2" x1="1562.5" y1="0.5" x2="1600.5" y2="60.5"/><line class="cls-2" x1="1577.5" y1="0.5" x2="1600.5" y2="36.5"/><line class="cls-2" x1="1590.5" y1="0.5" x2="1600.5" y2="15.5"/></g><g id="Layer_14" data-name="Layer 14"><line class="cls-2" x1="-7.5" y1="325.5" x2="89.5" y2="468.5"/><line class="cls-2" x1="-21.09" y1="325.42" x2="75.91" y2="468.42"/><line class="cls-2" x1="-29.09" y1="272.42" x2="67.91" y2="415.42"/><line class="cls-2" x1="-4.3" y1="267.96" x2="92.7" y2="410.96"/><line class="cls-2" x1="-17.89" y1="267.88" x2="79.11" y2="410.88"/><line class="cls-2" x1="-8.89" y1="239.88" x2="88.11" y2="382.88"/><line class="cls-2" x1="-108.5" y1="70.5" x2="161.44" y2="471.2"/><line class="cls-2" x1="-100.98" y1="59.64" x2="168.96" y2="460.34"/><line class="cls-2" x1="-106.36" y1="30.03" x2="163.59" y2="430.73"/><line class="cls-2" x1="-98.84" y1="19.17" x2="171.11" y2="419.87"/><line class="cls-2" x1="-61.76" y1="51.02" x2="208.18" y2="451.72"/><line class="cls-2" x1="-54.24" y1="40.17" x2="215.7" y2="440.86"/><line class="cls-2" x1="-59.62" y1="10.55" x2="210.32" y2="411.25"/><line class="cls-2" x1="-52.1" y1="-0.3" x2="217.84" y2="400.39"/><line class="cls-2" x1="-32.36" y1="6.46" x2="237.58" y2="407.16"/><line class="cls-2" x1="-24.84" y1="-4.4" x2="245.1" y2="396.3"/><line class="cls-2" x1="-30.22" y1="-34.01" x2="239.72" y2="366.69"/><line class="cls-2" x1="-22.7" y1="-44.87" x2="247.24" y2="355.83"/><line class="cls-2" x1="14.37" y1="-13.02" x2="284.31" y2="387.68"/><line class="cls-2" x1="21.89" y1="-23.87" x2="291.84" y2="376.82"/><line class="cls-2" x1="16.52" y1="-53.49" x2="286.46" y2="347.21"/><line class="cls-2" x1="24.04" y1="-64.34" x2="293.98" y2="336.35"/><line class="cls-2" x1="80.13" y1="-5.95" x2="350.07" y2="394.75"/><line class="cls-2" x1="87.65" y1="-16.8" x2="357.59" y2="383.89"/><line class="cls-2" x1="82.27" y1="-46.42" x2="352.21" y2="354.28"/><line class="cls-2" x1="89.79" y1="-57.27" x2="359.73" y2="343.42"/><line class="cls-2" x1="126.87" y1="-25.42" x2="396.81" y2="375.27"/><line class="cls-2" x1="134.39" y1="-36.28" x2="404.33" y2="364.42"/><line class="cls-2" x1="129.01" y1="-65.89" x2="398.95" y2="334.8"/><line class="cls-2" x1="136.53" y1="-76.75" x2="406.47" y2="323.95"/><line class="cls-2" x1="156.26" y1="-69.98" x2="426.21" y2="330.71"/><line class="cls-2" x1="163.78" y1="-80.84" x2="433.73" y2="319.85"/><line class="cls-2" x1="158.41" y1="-110.45" x2="428.35" y2="290.24"/><line class="cls-2" x1="165.93" y1="-121.31" x2="435.87" y2="279.38"/><line class="cls-2" x1="203" y1="-89.46" x2="472.94" y2="311.24"/><line class="cls-2" x1="210.52" y1="-100.32" x2="480.46" y2="300.38"/><line class="cls-2" x1="205.14" y1="-129.93" x2="475.09" y2="270.76"/><line class="cls-2" x1="212.67" y1="-140.79" x2="482.61" y2="259.91"/><line class="cls-2" x1="302.89" y1="-28.08" x2="572.83" y2="372.62"/><line class="cls-2" x1="310.41" y1="-38.93" x2="580.35" y2="361.76"/><line class="cls-2" x1="305.03" y1="-68.55" x2="574.97" y2="332.15"/><line class="cls-2" x1="312.55" y1="-79.4" x2="582.49" y2="321.29"/><line class="cls-2" x1="349.62" y1="-47.55" x2="619.57" y2="353.14"/><line class="cls-2" x1="357.14" y1="-58.41" x2="627.09" y2="342.28"/><line class="cls-2" x1="351.77" y1="-88.02" x2="621.71" y2="312.67"/><line class="cls-2" x1="359.29" y1="-98.88" x2="629.23" y2="301.81"/><line class="cls-2" x1="379.02" y1="-92.12" x2="648.96" y2="308.58"/><line class="cls-2" x1="386.54" y1="-102.97" x2="656.48" y2="297.72"/><line class="cls-2" x1="381.17" y1="-132.59" x2="651.11" y2="268.11"/><line class="cls-2" x1="388.69" y1="-143.44" x2="658.63" y2="257.25"/><line class="cls-2" x1="425.76" y1="-111.59" x2="695.7" y2="289.1"/><line class="cls-2" x1="433.28" y1="-122.45" x2="703.22" y2="278.25"/><line class="cls-2" x1="427.9" y1="-152.06" x2="697.84" y2="248.63"/><line class="cls-2" x1="435.42" y1="-162.92" x2="705.36" y2="237.78"/></g><g id="Layer_7" data-name="Layer 7"><path class="cls-4" d="M1521.55,110.87a27.83,27.83,0,0,0-39.34-1.16L1254.59,328.05c-17.94,17.2-5.4,47.87,19.66,48.08L1600,379V192.65Z"/><line class="cls-5" x1="1568.5" y1="160.5" x2="1350.2" y2="368.53"/><line class="cls-5" x1="1564.5" y1="155.5" x2="1333.42" y2="375.66"/><line class="cls-5" x1="1559.5" y1="150.5" x2="1337.8" y2="362.12"/><line class="cls-5" x1="1554.5" y1="146.5" x2="1321.02" y2="369.24"/><line class="cls-5" x1="1550.5" y1="141.5" x2="1326" y2="355.32"/><line class="cls-5" x1="1545.5" y1="136.5" x2="1309.22" y2="362.45"/><line class="cls-5" x1="1541.5" y1="132.5" x2="1313.6" y2="348.91"/><line class="cls-5" x1="1537.5" y1="127.5" x2="1296.81" y2="356.03"/><line class="cls-5" x1="1532.5" y1="122.5" x2="1337.1" y2="307.93"/><line class="cls-5" x1="1527.5" y1="117.5" x2="1320.32" y2="315.05"/><line class="cls-5" x1="1522.5" y1="113.5" x2="1324.7" y2="301.51"/><line class="cls-5" x1="1518.5" y1="108.5" x2="1307.91" y2="308.64"/><line class="cls-5" x1="1512.5" y1="104.5" x2="1312.9" y2="294.72"/><line class="cls-5" x1="1504.5" y1="102.5" x2="1296.12" y2="300.85"/><line class="cls-5" x1="1494.5" y1="103.5" x2="1300.5" y2="288.3"/></g><g id="Layer_6" data-name="Layer 6"><path class="cls-6" d="M549.59,328.05,777.21,109.71a27.83,27.83,0,0,1,39.34,1.16l213.14,222.2c17.11,17.84,4.82,47.14-19.68,46.93l-440.76-3.87C544.19,375.92,531.65,345.25,549.59,328.05Z"/><path class="cls-6" d="M1422.55,166.87a27.83,27.83,0,0,0-39.34-1.16L1155.59,384.05c-17.94,17.2-5.4,47.87,19.66,48.08L1602,435.88V354Z"/><circle class="cls-7" cx="682.5" cy="209.5" r="1.5"/><circle class="cls-7" cx="687.5" cy="214.5" r="1.5"/><circle class="cls-7" cx="692.5" cy="219.5" r="1.5"/><circle class="cls-7" cx="697.5" cy="224.5" r="1.5"/><circle class="cls-7" cx="702.5" cy="229.5" r="1.5"/><circle class="cls-7" cx="707.5" cy="234.5" r="1.5"/><circle class="cls-7" cx="712.5" cy="239.5" r="1.5"/><circle class="cls-7" cx="717.5" cy="244.5" r="1.5"/><circle class="cls-7" cx="722.5" cy="249.5" r="1.5"/><circle class="cls-7" cx="727.5" cy="254.5" r="1.5"/><circle class="cls-7" cx="732.5" cy="259.5" r="1.5"/><circle class="cls-7" cx="737.5" cy="264.5" r="1.5"/><circle class="cls-7" cx="690.5" cy="202.5" r="1.5"/><circle class="cls-7" cx="695.5" cy="207.5" r="1.5"/><circle class="cls-7" cx="700.5" cy="212.5" r="1.5"/><circle class="cls-7" cx="705.5" cy="217.5" r="1.5"/><circle class="cls-7" cx="710.5" cy="222.5" r="1.5"/><circle class="cls-7" cx="715.5" cy="227.5" r="1.5"/><circle class="cls-7" cx="720.5" cy="232.5" r="1.5"/><circle class="cls-7" cx="725.5" cy="237.5" r="1.5"/><circle class="cls-7" cx="730.5" cy="242.5" r="1.5"/><circle class="cls-7" cx="735.5" cy="247.5" r="1.5"/><circle class="cls-7" cx="740.5" cy="252.5" r="1.5"/><circle class="cls-7" cx="714.5" cy="181.5" r="1.5"/><circle class="cls-7" cx="719.5" cy="186.5" r="1.5"/><circle class="cls-7" cx="724.5" cy="191.5" r="1.5"/><circle class="cls-7" cx="729.5" cy="196.5" r="1.5"/><circle class="cls-7" cx="734.5" cy="201.5" r="1.5"/><circle class="cls-7" cx="739.5" cy="206.5" r="1.5"/><circle class="cls-7" cx="744.5" cy="211.5" r="1.5"/><circle class="cls-7" cx="749.5" cy="216.5" r="1.5"/><circle class="cls-7" cx="754.5" cy="221.5" r="1.5"/><circle class="cls-7" cx="759.5" cy="226.5" r="1.5"/><circle class="cls-7" cx="764.5" cy="231.5" r="1.5"/><circle class="cls-7" cx="710.5" cy="176.5" r="1.5"/><circle class="cls-7" cx="722.5" cy="174.5" r="1.5"/><circle class="cls-7" cx="727.5" cy="179.5" r="1.5"/><circle class="cls-7" cx="732.5" cy="184.5" r="1.5"/><circle class="cls-7" cx="737.5" cy="189.5" r="1.5"/><circle class="cls-7" cx="742.5" cy="194.5" r="1.5"/><circle class="cls-7" cx="747.5" cy="199.5" r="1.5"/><circle class="cls-7" cx="752.5" cy="204.5" r="1.5"/><circle class="cls-7" cx="757.5" cy="209.5" r="1.5"/><circle class="cls-7" cx="762.5" cy="214.5" r="1.5"/><circle class="cls-7" cx="767.5" cy="219.5" r="1.5"/><circle class="cls-7" cx="772.5" cy="224.5" r="1.5"/><circle class="cls-7" cx="718.5" cy="169.5" r="1.5"/><circle class="cls-7" cx="708.5" cy="182.5" r="1.5"/><circle class="cls-7" cx="713.5" cy="187.5" r="1.5"/><circle class="cls-7" cx="718.5" cy="192.5" r="1.5"/><circle class="cls-7" cx="723.5" cy="197.5" r="1.5"/><circle class="cls-7" cx="728.5" cy="202.5" r="1.5"/><circle class="cls-7" cx="733.5" cy="207.5" r="1.5"/><circle class="cls-7" cx="738.5" cy="212.5" r="1.5"/><circle class="cls-7" cx="743.5" cy="217.5" r="1.5"/><circle class="cls-7" cx="748.5" cy="222.5" r="1.5"/><circle class="cls-7" cx="753.5" cy="227.5" r="1.5"/><circle class="cls-7" cx="758.5" cy="232.5" r="1.5"/><circle class="cls-7" cx="763.5" cy="237.5" r="1.5"/><circle class="cls-7" cx="716.5" cy="175.5" r="1.5"/><circle class="cls-7" cx="721.5" cy="180.5" r="1.5"/><circle class="cls-7" cx="726.5" cy="185.5" r="1.5"/><circle class="cls-7" cx="731.5" cy="190.5" r="1.5"/><circle class="cls-7" cx="736.5" cy="195.5" r="1.5"/><circle class="cls-7" cx="741.5" cy="200.5" r="1.5"/><circle class="cls-7" cx="746.5" cy="205.5" r="1.5"/><circle class="cls-7" cx="751.5" cy="210.5" r="1.5"/><circle class="cls-7" cx="756.5" cy="215.5" r="1.5"/><circle class="cls-7" cx="761.5" cy="220.5" r="1.5"/><circle class="cls-7" cx="766.5" cy="225.5" r="1.5"/><circle class="cls-7" cx="771.5" cy="230.5" r="1.5"/><circle class="cls-7" cx="729.5" cy="166.5" r="1.5"/><circle class="cls-7" cx="734.5" cy="171.5" r="1.5"/><circle class="cls-7" cx="739.5" cy="176.5" r="1.5"/><circle class="cls-7" cx="744.5" cy="181.5" r="1.5"/><circle class="cls-7" cx="749.5" cy="186.5" r="1.5"/><circle class="cls-7" cx="754.5" cy="191.5" r="1.5"/><circle class="cls-7" cx="759.5" cy="196.5" r="1.5"/><circle class="cls-7" cx="764.5" cy="201.5" r="1.5"/><circle class="cls-7" cx="769.5" cy="206.5" r="1.5"/><circle class="cls-7" cx="774.5" cy="211.5" r="1.5"/><circle class="cls-7" cx="779.5" cy="216.5" r="1.5"/><circle class="cls-7" cx="737.5" cy="159.5" r="1.5"/><circle class="cls-7" cx="742.5" cy="164.5" r="1.5"/><circle class="cls-7" cx="747.5" cy="169.5" r="1.5"/><circle class="cls-7" cx="752.5" cy="174.5" r="1.5"/><circle class="cls-7" cx="757.5" cy="179.5" r="1.5"/><circle class="cls-7" cx="762.5" cy="184.5" r="1.5"/><circle class="cls-7" cx="767.5" cy="189.5" r="1.5"/><circle class="cls-7" cx="772.5" cy="194.5" r="1.5"/><circle class="cls-7" cx="777.5" cy="199.5" r="1.5"/><circle class="cls-7" cx="782.5" cy="204.5" r="1.5"/><circle class="cls-7" cx="787.5" cy="209.5" r="1.5"/><circle class="cls-7" cx="733.5" cy="154.5" r="1.5"/><circle class="cls-7" cx="723.5" cy="167.5" r="1.5"/><circle class="cls-7" cx="728.5" cy="172.5" r="1.5"/><circle class="cls-7" cx="733.5" cy="177.5" r="1.5"/><circle class="cls-7" cx="738.5" cy="182.5" r="1.5"/><circle class="cls-7" cx="743.5" cy="187.5" r="1.5"/><circle class="cls-7" cx="748.5" cy="192.5" r="1.5"/><circle class="cls-7" cx="753.5" cy="197.5" r="1.5"/><circle class="cls-7" cx="758.5" cy="202.5" r="1.5"/><circle class="cls-7" cx="763.5" cy="207.5" r="1.5"/><circle class="cls-7" cx="768.5" cy="212.5" r="1.5"/><circle class="cls-7" cx="773.5" cy="217.5" r="1.5"/><circle class="cls-7" cx="778.5" cy="222.5" r="1.5"/><circle class="cls-7" cx="731.5" cy="160.5" r="1.5"/><circle class="cls-7" cx="736.5" cy="165.5" r="1.5"/><circle class="cls-7" cx="741.5" cy="170.5" r="1.5"/><circle class="cls-7" cx="746.5" cy="175.5" r="1.5"/><circle class="cls-7" cx="751.5" cy="180.5" r="1.5"/><circle class="cls-7" cx="756.5" cy="185.5" r="1.5"/><circle class="cls-7" cx="761.5" cy="190.5" r="1.5"/><circle class="cls-7" cx="766.5" cy="195.5" r="1.5"/><circle class="cls-7" cx="771.5" cy="200.5" r="1.5"/><circle class="cls-7" cx="776.5" cy="205.5" r="1.5"/><circle class="cls-7" cx="781.5" cy="210.5" r="1.5"/><circle class="cls-7" cx="786.5" cy="215.5" r="1.5"/><circle class="cls-7" cx="744.5" cy="152.5" r="1.5"/><circle class="cls-7" cx="749.5" cy="157.5" r="1.5"/><circle class="cls-7" cx="754.5" cy="162.5" r="1.5"/><circle class="cls-7" cx="759.5" cy="167.5" r="1.5"/><circle class="cls-7" cx="764.5" cy="172.5" r="1.5"/><circle class="cls-7" cx="769.5" cy="177.5" r="1.5"/><circle class="cls-7" cx="774.5" cy="182.5" r="1.5"/><circle class="cls-7" cx="779.5" cy="187.5" r="1.5"/><circle class="cls-7" cx="784.5" cy="192.5" r="1.5"/><circle class="cls-7" cx="789.5" cy="197.5" r="1.5"/><circle class="cls-7" cx="794.5" cy="202.5" r="1.5"/><circle class="cls-7" cx="740.5" cy="147.5" r="1.5"/><circle class="cls-7" cx="752.5" cy="145.5" r="1.5"/><circle class="cls-7" cx="757.5" cy="150.5" r="1.5"/><circle class="cls-7" cx="762.5" cy="155.5" r="1.5"/><circle class="cls-7" cx="767.5" cy="160.5" r="1.5"/><circle class="cls-7" cx="772.5" cy="165.5" r="1.5"/><circle class="cls-7" cx="777.5" cy="170.5" r="1.5"/><circle class="cls-7" cx="782.5" cy="175.5" r="1.5"/><circle class="cls-7" cx="787.5" cy="180.5" r="1.5"/><circle class="cls-7" cx="792.5" cy="185.5" r="1.5"/><circle class="cls-7" cx="797.5" cy="190.5" r="1.5"/><circle class="cls-7" cx="802.5" cy="195.5" r="1.5"/><circle class="cls-7" cx="748.5" cy="140.5" r="1.5"/><circle class="cls-7" cx="738.5" cy="153.5" r="1.5"/><circle class="cls-7" cx="743.5" cy="158.5" r="1.5"/><circle class="cls-7" cx="748.5" cy="163.5" r="1.5"/><circle class="cls-7" cx="753.5" cy="168.5" r="1.5"/><circle class="cls-7" cx="758.5" cy="173.5" r="1.5"/><circle class="cls-7" cx="763.5" cy="178.5" r="1.5"/><circle class="cls-7" cx="768.5" cy="183.5" r="1.5"/><circle class="cls-7" cx="773.5" cy="188.5" r="1.5"/><circle class="cls-7" cx="778.5" cy="193.5" r="1.5"/><circle class="cls-7" cx="783.5" cy="198.5" r="1.5"/><circle class="cls-7" cx="788.5" cy="203.5" r="1.5"/><circle class="cls-7" cx="793.5" cy="208.5" r="1.5"/><circle class="cls-7" cx="746.5" cy="146.5" r="1.5"/><circle class="cls-7" cx="751.5" cy="151.5" r="1.5"/><circle class="cls-7" cx="756.5" cy="156.5" r="1.5"/><circle class="cls-7" cx="761.5" cy="161.5" r="1.5"/><circle class="cls-7" cx="766.5" cy="166.5" r="1.5"/><circle class="cls-7" cx="771.5" cy="171.5" r="1.5"/><circle class="cls-7" cx="776.5" cy="176.5" r="1.5"/><circle class="cls-7" cx="781.5" cy="181.5" r="1.5"/><circle class="cls-7" cx="786.5" cy="186.5" r="1.5"/><circle class="cls-7" cx="791.5" cy="191.5" r="1.5"/><circle class="cls-7" cx="796.5" cy="196.5" r="1.5"/><circle class="cls-7" cx="801.5" cy="201.5" r="1.5"/><circle class="cls-7" cx="760.5" cy="138.5" r="1.5"/><circle class="cls-7" cx="765.5" cy="143.5" r="1.5"/><circle class="cls-7" cx="770.5" cy="148.5" r="1.5"/><circle class="cls-7" cx="775.5" cy="153.5" r="1.5"/><circle class="cls-7" cx="780.5" cy="158.5" r="1.5"/><circle class="cls-7" cx="785.5" cy="163.5" r="1.5"/><circle class="cls-7" cx="790.5" cy="168.5" r="1.5"/><circle class="cls-7" cx="795.5" cy="173.5" r="1.5"/><circle class="cls-7" cx="800.5" cy="178.5" r="1.5"/><circle class="cls-7" cx="805.5" cy="183.5" r="1.5"/><circle class="cls-7" cx="810.5" cy="188.5" r="1.5"/><circle class="cls-7" cx="756.5" cy="133.5" r="1.5"/><circle class="cls-7" cx="768.5" cy="131.5" r="1.5"/><circle class="cls-7" cx="773.5" cy="136.5" r="1.5"/><circle class="cls-7" cx="778.5" cy="141.5" r="1.5"/><circle class="cls-7" cx="783.5" cy="146.5" r="1.5"/><circle class="cls-7" cx="788.5" cy="151.5" r="1.5"/><circle class="cls-7" cx="793.5" cy="156.5" r="1.5"/><circle class="cls-7" cx="798.5" cy="161.5" r="1.5"/><circle class="cls-7" cx="803.5" cy="166.5" r="1.5"/><circle class="cls-7" cx="808.5" cy="171.5" r="1.5"/><circle class="cls-7" cx="813.5" cy="176.5" r="1.5"/><circle class="cls-7" cx="818.5" cy="181.5" r="1.5"/><circle class="cls-7" cx="764.5" cy="126.5" r="1.5"/><circle class="cls-7" cx="754.5" cy="139.5" r="1.5"/><circle class="cls-7" cx="759.5" cy="144.5" r="1.5"/><circle class="cls-7" cx="764.5" cy="149.5" r="1.5"/><circle class="cls-7" cx="769.5" cy="154.5" r="1.5"/><circle class="cls-7" cx="774.5" cy="159.5" r="1.5"/><circle class="cls-7" cx="779.5" cy="164.5" r="1.5"/><circle class="cls-7" cx="784.5" cy="169.5" r="1.5"/><circle class="cls-7" cx="789.5" cy="174.5" r="1.5"/><circle class="cls-7" cx="794.5" cy="179.5" r="1.5"/><circle class="cls-7" cx="799.5" cy="184.5" r="1.5"/><circle class="cls-7" cx="804.5" cy="189.5" r="1.5"/><circle class="cls-7" cx="809.5" cy="194.5" r="1.5"/><circle class="cls-7" cx="762.5" cy="132.5" r="1.5"/><circle class="cls-7" cx="767.5" cy="137.5" r="1.5"/><circle class="cls-7" cx="772.5" cy="142.5" r="1.5"/><circle class="cls-7" cx="777.5" cy="147.5" r="1.5"/><circle class="cls-7" cx="782.5" cy="152.5" r="1.5"/><circle class="cls-7" cx="787.5" cy="157.5" r="1.5"/><circle class="cls-7" cx="792.5" cy="162.5" r="1.5"/><circle class="cls-7" cx="797.5" cy="167.5" r="1.5"/><circle class="cls-7" cx="802.5" cy="172.5" r="1.5"/><circle class="cls-7" cx="807.5" cy="177.5" r="1.5"/><circle class="cls-7" cx="812.5" cy="182.5" r="1.5"/><circle class="cls-7" cx="817.5" cy="187.5" r="1.5"/><circle class="cls-7" cx="771.5" cy="119.5" r="1.5"/><circle class="cls-7" cx="776.5" cy="124.5" r="1.5"/><circle class="cls-7" cx="781.5" cy="129.5" r="1.5"/><circle class="cls-7" cx="786.5" cy="134.5" r="1.5"/><circle class="cls-7" cx="791.5" cy="139.5" r="1.5"/><circle class="cls-7" cx="796.5" cy="144.5" r="1.5"/><circle class="cls-7" cx="801.5" cy="149.5" r="1.5"/><circle class="cls-7" cx="806.5" cy="154.5" r="1.5"/><circle class="cls-7" cx="811.5" cy="159.5" r="1.5"/><circle class="cls-7" cx="816.5" cy="164.5" r="1.5"/><circle class="cls-7" cx="821.5" cy="169.5" r="1.5"/><circle class="cls-7" cx="779.5" cy="112.5" r="1.5"/><circle class="cls-7" cx="784.5" cy="117.5" r="1.5"/><circle class="cls-7" cx="789.5" cy="122.5" r="1.5"/><circle class="cls-7" cx="794.5" cy="127.5" r="1.5"/><circle class="cls-7" cx="799.5" cy="132.5" r="1.5"/><circle class="cls-7" cx="804.5" cy="137.5" r="1.5"/><circle class="cls-7" cx="809.5" cy="142.5" r="1.5"/><circle class="cls-7" cx="814.5" cy="147.5" r="1.5"/><circle class="cls-7" cx="819.5" cy="152.5" r="1.5"/><circle class="cls-7" cx="824.5" cy="157.5" r="1.5"/><circle class="cls-7" cx="829.5" cy="162.5" r="1.5"/><circle class="cls-7" cx="770.5" cy="125.5" r="1.5"/><circle class="cls-7" cx="775.5" cy="130.5" r="1.5"/><circle class="cls-7" cx="780.5" cy="135.5" r="1.5"/><circle class="cls-7" cx="785.5" cy="140.5" r="1.5"/><circle class="cls-7" cx="790.5" cy="145.5" r="1.5"/><circle class="cls-7" cx="795.5" cy="150.5" r="1.5"/><circle class="cls-7" cx="800.5" cy="155.5" r="1.5"/><circle class="cls-7" cx="805.5" cy="160.5" r="1.5"/><circle class="cls-7" cx="810.5" cy="165.5" r="1.5"/><circle class="cls-7" cx="815.5" cy="170.5" r="1.5"/><circle class="cls-7" cx="820.5" cy="175.5" r="1.5"/><circle class="cls-7" cx="778.5" cy="118.5" r="1.5"/><circle class="cls-7" cx="783.5" cy="123.5" r="1.5"/><circle class="cls-7" cx="788.5" cy="128.5" r="1.5"/><circle class="cls-7" cx="793.5" cy="133.5" r="1.5"/><circle class="cls-7" cx="798.5" cy="138.5" r="1.5"/><circle class="cls-7" cx="803.5" cy="143.5" r="1.5"/><circle class="cls-7" cx="808.5" cy="148.5" r="1.5"/><circle class="cls-7" cx="813.5" cy="153.5" r="1.5"/><circle class="cls-7" cx="818.5" cy="158.5" r="1.5"/><circle class="cls-7" cx="823.5" cy="163.5" r="1.5"/><circle class="cls-7" cx="828.5" cy="168.5" r="1.5"/><circle class="cls-7" cx="787.5" cy="106.5" r="1.5"/><circle class="cls-7" cx="792.5" cy="111.5" r="1.5"/><circle class="cls-7" cx="797.5" cy="116.5" r="1.5"/><circle class="cls-7" cx="802.5" cy="121.5" r="1.5"/><circle class="cls-7" cx="807.5" cy="126.5" r="1.5"/><circle class="cls-7" cx="812.5" cy="131.5" r="1.5"/><circle class="cls-7" cx="817.5" cy="136.5" r="1.5"/><circle class="cls-7" cx="822.5" cy="141.5" r="1.5"/><circle class="cls-7" cx="827.5" cy="146.5" r="1.5"/><circle class="cls-7" cx="832.5" cy="151.5" r="1.5"/><circle class="cls-7" cx="837.5" cy="156.5" r="1.5"/><circle class="cls-7" cx="800.5" cy="104.5" r="1.5"/><circle class="cls-7" cx="805.5" cy="109.5" r="1.5"/><circle class="cls-7" cx="810.5" cy="114.5" r="1.5"/><circle class="cls-7" cx="815.5" cy="119.5" r="1.5"/><circle class="cls-7" cx="820.5" cy="124.5" r="1.5"/><circle class="cls-7" cx="825.5" cy="129.5" r="1.5"/><circle class="cls-7" cx="830.5" cy="134.5" r="1.5"/><circle class="cls-7" cx="835.5" cy="139.5" r="1.5"/><circle class="cls-7" cx="840.5" cy="144.5" r="1.5"/><circle class="cls-7" cx="845.5" cy="149.5" r="1.5"/><circle class="cls-7" cx="786.5" cy="112.5" r="1.5"/><circle class="cls-7" cx="791.5" cy="117.5" r="1.5"/><circle class="cls-7" cx="796.5" cy="122.5" r="1.5"/><circle class="cls-7" cx="801.5" cy="127.5" r="1.5"/><circle class="cls-7" cx="806.5" cy="132.5" r="1.5"/><circle class="cls-7" cx="811.5" cy="137.5" r="1.5"/><circle class="cls-7" cx="816.5" cy="142.5" r="1.5"/><circle class="cls-7" cx="821.5" cy="147.5" r="1.5"/><circle class="cls-7" cx="826.5" cy="152.5" r="1.5"/><circle class="cls-7" cx="831.5" cy="157.5" r="1.5"/><circle class="cls-7" cx="836.5" cy="162.5" r="1.5"/><circle class="cls-7" cx="794.5" cy="105.5" r="1.5"/><circle class="cls-7" cx="799.5" cy="110.5" r="1.5"/><circle class="cls-7" cx="804.5" cy="115.5" r="1.5"/><circle class="cls-7" cx="809.5" cy="120.5" r="1.5"/><circle class="cls-7" cx="814.5" cy="125.5" r="1.5"/><circle class="cls-7" cx="819.5" cy="130.5" r="1.5"/><circle class="cls-7" cx="824.5" cy="135.5" r="1.5"/><circle class="cls-7" cx="829.5" cy="140.5" r="1.5"/><circle class="cls-7" cx="834.5" cy="145.5" r="1.5"/><circle class="cls-7" cx="839.5" cy="150.5" r="1.5"/><circle class="cls-7" cx="844.5" cy="155.5" r="1.5"/><circle class="cls-7" cx="811.5" cy="108.5" r="1.5"/><circle class="cls-7" cx="816.5" cy="113.5" r="1.5"/><circle class="cls-7" cx="821.5" cy="118.5" r="1.5"/><circle class="cls-7" cx="851.5" cy="148.5" r="1.5"/><circle class="cls-7" cx="856.5" cy="153.5" r="1.5"/><circle class="cls-7" cx="1352.5" cy="203.5" r="1.5"/><circle class="cls-7" cx="1357.5" cy="208.5" r="1.5"/><circle class="cls-7" cx="1362.5" cy="213.5" r="1.5"/><circle class="cls-7" cx="1367.5" cy="218.5" r="1.5"/><circle class="cls-7" cx="1372.5" cy="223.5" r="1.5"/><circle class="cls-7" cx="1377.5" cy="228.5" r="1.5"/><circle class="cls-7" cx="1382.5" cy="233.5" r="1.5"/><circle class="cls-7" cx="1387.5" cy="238.5" r="1.5"/><circle class="cls-7" cx="1392.5" cy="243.5" r="1.5"/><circle class="cls-7" cx="1397.5" cy="248.5" r="1.5"/><circle class="cls-7" cx="1402.5" cy="253.5" r="1.5"/><circle class="cls-7" cx="1354.5" cy="197.5" r="1.5"/><circle class="cls-7" cx="1359.5" cy="202.5" r="1.5"/><circle class="cls-7" cx="1364.5" cy="207.5" r="1.5"/><circle class="cls-7" cx="1369.5" cy="212.5" r="1.5"/><circle class="cls-7" cx="1374.5" cy="217.5" r="1.5"/><circle class="cls-7" cx="1379.5" cy="222.5" r="1.5"/><circle class="cls-7" cx="1384.5" cy="227.5" r="1.5"/><circle class="cls-7" cx="1389.5" cy="232.5" r="1.5"/><circle class="cls-7" cx="1394.5" cy="237.5" r="1.5"/><circle class="cls-7" cx="1399.5" cy="242.5" r="1.5"/><circle class="cls-7" cx="1404.5" cy="247.5" r="1.5"/><circle class="cls-7" cx="1409.5" cy="252.5" r="1.5"/><circle class="cls-7" cx="1411.5" cy="263.5" r="1.5"/><circle class="cls-7" cx="1416.5" cy="268.5" r="1.5"/><circle class="cls-7" cx="1421.5" cy="273.5" r="1.5"/><circle class="cls-7" cx="1426.5" cy="278.5" r="1.5"/><circle class="cls-7" cx="1431.5" cy="283.5" r="1.5"/><circle class="cls-7" cx="1436.5" cy="288.5" r="1.5"/><circle class="cls-7" cx="1441.5" cy="293.5" r="1.5"/><circle class="cls-7" cx="1446.5" cy="298.5" r="1.5"/><circle class="cls-7" cx="1451.5" cy="303.5" r="1.5"/><circle class="cls-7" cx="1456.5" cy="308.5" r="1.5"/><circle class="cls-7" cx="1461.5" cy="313.5" r="1.5"/><circle class="cls-7" cx="1407.5" cy="258.5" r="1.5"/><circle class="cls-7" cx="1413.5" cy="257.5" r="1.5"/><circle class="cls-7" cx="1418.5" cy="262.5" r="1.5"/><circle class="cls-7" cx="1423.5" cy="267.5" r="1.5"/><circle class="cls-7" cx="1428.5" cy="272.5" r="1.5"/><circle class="cls-7" cx="1433.5" cy="277.5" r="1.5"/><circle class="cls-7" cx="1438.5" cy="282.5" r="1.5"/><circle class="cls-7" cx="1443.5" cy="287.5" r="1.5"/><circle class="cls-7" cx="1448.5" cy="292.5" r="1.5"/><circle class="cls-7" cx="1453.5" cy="297.5" r="1.5"/><circle class="cls-7" cx="1458.5" cy="302.5" r="1.5"/><circle class="cls-7" cx="1463.5" cy="307.5" r="1.5"/><circle class="cls-7" cx="1468.5" cy="312.5" r="1.5"/><circle class="cls-7" cx="1360.5" cy="195.5" r="1.5"/><circle class="cls-7" cx="1365.5" cy="200.5" r="1.5"/><circle class="cls-7" cx="1370.5" cy="205.5" r="1.5"/><circle class="cls-7" cx="1375.5" cy="210.5" r="1.5"/><circle class="cls-7" cx="1380.5" cy="215.5" r="1.5"/><circle class="cls-7" cx="1385.5" cy="220.5" r="1.5"/><circle class="cls-7" cx="1390.5" cy="225.5" r="1.5"/><circle class="cls-7" cx="1395.5" cy="230.5" r="1.5"/><circle class="cls-7" cx="1400.5" cy="235.5" r="1.5"/><circle class="cls-7" cx="1405.5" cy="240.5" r="1.5"/><circle class="cls-7" cx="1410.5" cy="245.5" r="1.5"/><circle class="cls-7" cx="1362.5" cy="189.5" r="1.5"/><circle class="cls-7" cx="1367.5" cy="194.5" r="1.5"/><circle class="cls-7" cx="1372.5" cy="199.5" r="1.5"/><circle class="cls-7" cx="1377.5" cy="204.5" r="1.5"/><circle class="cls-7" cx="1382.5" cy="209.5" r="1.5"/><circle class="cls-7" cx="1387.5" cy="214.5" r="1.5"/><circle class="cls-7" cx="1392.5" cy="219.5" r="1.5"/><circle class="cls-7" cx="1397.5" cy="224.5" r="1.5"/><circle class="cls-7" cx="1402.5" cy="229.5" r="1.5"/><circle class="cls-7" cx="1407.5" cy="234.5" r="1.5"/><circle class="cls-7" cx="1412.5" cy="239.5" r="1.5"/><circle class="cls-7" cx="1417.5" cy="244.5" r="1.5"/><circle class="cls-7" cx="1419.5" cy="255.5" r="1.5"/><circle class="cls-7" cx="1424.5" cy="260.5" r="1.5"/><circle class="cls-7" cx="1429.5" cy="265.5" r="1.5"/><circle class="cls-7" cx="1434.5" cy="270.5" r="1.5"/><circle class="cls-7" cx="1439.5" cy="275.5" r="1.5"/><circle class="cls-7" cx="1444.5" cy="280.5" r="1.5"/><circle class="cls-7" cx="1449.5" cy="285.5" r="1.5"/><circle class="cls-7" cx="1454.5" cy="290.5" r="1.5"/><circle class="cls-7" cx="1459.5" cy="295.5" r="1.5"/><circle class="cls-7" cx="1464.5" cy="300.5" r="1.5"/><circle class="cls-7" cx="1469.5" cy="305.5" r="1.5"/><circle class="cls-7" cx="1415.5" cy="250.5" r="1.5"/><circle class="cls-7" cx="1421.5" cy="249.5" r="1.5"/><circle class="cls-7" cx="1426.5" cy="254.5" r="1.5"/><circle class="cls-7" cx="1431.5" cy="259.5" r="1.5"/><circle class="cls-7" cx="1436.5" cy="264.5" r="1.5"/><circle class="cls-7" cx="1441.5" cy="269.5" r="1.5"/><circle class="cls-7" cx="1446.5" cy="274.5" r="1.5"/><circle class="cls-7" cx="1451.5" cy="279.5" r="1.5"/><circle class="cls-7" cx="1456.5" cy="284.5" r="1.5"/><circle class="cls-7" cx="1461.5" cy="289.5" r="1.5"/><circle class="cls-7" cx="1466.5" cy="294.5" r="1.5"/><circle class="cls-7" cx="1471.5" cy="299.5" r="1.5"/><circle class="cls-7" cx="1476.5" cy="304.5" r="1.5"/><circle class="cls-7" cx="1368.5" cy="187.5" r="1.5"/><circle class="cls-7" cx="1373.5" cy="192.5" r="1.5"/><circle class="cls-7" cx="1378.5" cy="197.5" r="1.5"/><circle class="cls-7" cx="1383.5" cy="202.5" r="1.5"/><circle class="cls-7" cx="1388.5" cy="207.5" r="1.5"/><circle class="cls-7" cx="1393.5" cy="212.5" r="1.5"/><circle class="cls-7" cx="1398.5" cy="217.5" r="1.5"/><circle class="cls-7" cx="1403.5" cy="222.5" r="1.5"/><circle class="cls-7" cx="1408.5" cy="227.5" r="1.5"/><circle class="cls-7" cx="1413.5" cy="232.5" r="1.5"/><circle class="cls-7" cx="1418.5" cy="237.5" r="1.5"/><circle class="cls-7" cx="1370.5" cy="181.5" r="1.5"/><circle class="cls-7" cx="1375.5" cy="186.5" r="1.5"/><circle class="cls-7" cx="1380.5" cy="191.5" r="1.5"/><circle class="cls-7" cx="1385.5" cy="196.5" r="1.5"/><circle class="cls-7" cx="1390.5" cy="201.5" r="1.5"/><circle class="cls-7" cx="1395.5" cy="206.5" r="1.5"/><circle class="cls-7" cx="1400.5" cy="211.5" r="1.5"/><circle class="cls-7" cx="1405.5" cy="216.5" r="1.5"/><circle class="cls-7" cx="1410.5" cy="221.5" r="1.5"/><circle class="cls-7" cx="1415.5" cy="226.5" r="1.5"/><circle class="cls-7" cx="1420.5" cy="231.5" r="1.5"/><circle class="cls-7" cx="1425.5" cy="236.5" r="1.5"/><circle class="cls-7" cx="1427.5" cy="247.5" r="1.5"/><circle class="cls-7" cx="1432.5" cy="252.5" r="1.5"/><circle class="cls-7" cx="1437.5" cy="257.5" r="1.5"/><circle class="cls-7" cx="1442.5" cy="262.5" r="1.5"/><circle class="cls-7" cx="1447.5" cy="267.5" r="1.5"/><circle class="cls-7" cx="1452.5" cy="272.5" r="1.5"/><circle class="cls-7" cx="1457.5" cy="277.5" r="1.5"/><circle class="cls-7" cx="1462.5" cy="282.5" r="1.5"/><circle class="cls-7" cx="1467.5" cy="287.5" r="1.5"/><circle class="cls-7" cx="1472.5" cy="292.5" r="1.5"/><circle class="cls-7" cx="1477.5" cy="297.5" r="1.5"/><circle class="cls-7" cx="1423.5" cy="242.5" r="1.5"/><circle class="cls-7" cx="1429.5" cy="241.5" r="1.5"/><circle class="cls-7" cx="1434.5" cy="246.5" r="1.5"/><circle class="cls-7" cx="1439.5" cy="251.5" r="1.5"/><circle class="cls-7" cx="1444.5" cy="256.5" r="1.5"/><circle class="cls-7" cx="1449.5" cy="261.5" r="1.5"/><circle class="cls-7" cx="1454.5" cy="266.5" r="1.5"/><circle class="cls-7" cx="1459.5" cy="271.5" r="1.5"/><circle class="cls-7" cx="1464.5" cy="276.5" r="1.5"/><circle class="cls-7" cx="1469.5" cy="281.5" r="1.5"/><circle class="cls-7" cx="1474.5" cy="286.5" r="1.5"/><circle class="cls-7" cx="1479.5" cy="291.5" r="1.5"/><circle class="cls-7" cx="1484.5" cy="296.5" r="1.5"/><circle class="cls-7" cx="1376.5" cy="179.5" r="1.5"/><circle class="cls-7" cx="1381.5" cy="184.5" r="1.5"/><circle class="cls-7" cx="1386.5" cy="189.5" r="1.5"/><circle class="cls-7" cx="1391.5" cy="194.5" r="1.5"/><circle class="cls-7" cx="1396.5" cy="199.5" r="1.5"/><circle class="cls-7" cx="1401.5" cy="204.5" r="1.5"/><circle class="cls-7" cx="1406.5" cy="209.5" r="1.5"/><circle class="cls-7" cx="1411.5" cy="214.5" r="1.5"/><circle class="cls-7" cx="1416.5" cy="219.5" r="1.5"/><circle class="cls-7" cx="1421.5" cy="224.5" r="1.5"/><circle class="cls-7" cx="1426.5" cy="229.5" r="1.5"/><circle class="cls-7" cx="1378.5" cy="173.5" r="1.5"/><circle class="cls-7" cx="1383.5" cy="178.5" r="1.5"/><circle class="cls-7" cx="1388.5" cy="183.5" r="1.5"/><circle class="cls-7" cx="1393.5" cy="188.5" r="1.5"/><circle class="cls-7" cx="1398.5" cy="193.5" r="1.5"/><circle class="cls-7" cx="1403.5" cy="198.5" r="1.5"/><circle class="cls-7" cx="1408.5" cy="203.5" r="1.5"/><circle class="cls-7" cx="1413.5" cy="208.5" r="1.5"/><circle class="cls-7" cx="1418.5" cy="213.5" r="1.5"/><circle class="cls-7" cx="1423.5" cy="218.5" r="1.5"/><circle class="cls-7" cx="1428.5" cy="223.5" r="1.5"/><circle class="cls-7" cx="1433.5" cy="228.5" r="1.5"/><circle class="cls-7" cx="1435.5" cy="239.5" r="1.5"/><circle class="cls-7" cx="1440.5" cy="244.5" r="1.5"/><circle class="cls-7" cx="1445.5" cy="249.5" r="1.5"/><circle class="cls-7" cx="1450.5" cy="254.5" r="1.5"/><circle class="cls-7" cx="1455.5" cy="259.5" r="1.5"/><circle class="cls-7" cx="1460.5" cy="264.5" r="1.5"/><circle class="cls-7" cx="1465.5" cy="269.5" r="1.5"/><circle class="cls-7" cx="1470.5" cy="274.5" r="1.5"/><circle class="cls-7" cx="1475.5" cy="279.5" r="1.5"/><circle class="cls-7" cx="1480.5" cy="284.5" r="1.5"/><circle class="cls-7" cx="1485.5" cy="289.5" r="1.5"/><circle class="cls-7" cx="1431.5" cy="234.5" r="1.5"/><circle class="cls-7" cx="1437.5" cy="233.5" r="1.5"/><circle class="cls-7" cx="1442.5" cy="238.5" r="1.5"/><circle class="cls-7" cx="1447.5" cy="243.5" r="1.5"/><circle class="cls-7" cx="1452.5" cy="248.5" r="1.5"/><circle class="cls-7" cx="1457.5" cy="253.5" r="1.5"/><circle class="cls-7" cx="1462.5" cy="258.5" r="1.5"/><circle class="cls-7" cx="1467.5" cy="263.5" r="1.5"/><circle class="cls-7" cx="1472.5" cy="268.5" r="1.5"/><circle class="cls-7" cx="1477.5" cy="273.5" r="1.5"/><circle class="cls-7" cx="1482.5" cy="278.5" r="1.5"/><circle class="cls-7" cx="1487.5" cy="283.5" r="1.5"/><circle class="cls-7" cx="1492.5" cy="288.5" r="1.5"/><circle class="cls-7" cx="1385.5" cy="171.5" r="1.5"/><circle class="cls-7" cx="1390.5" cy="176.5" r="1.5"/><circle class="cls-7" cx="1395.5" cy="181.5" r="1.5"/><circle class="cls-7" cx="1400.5" cy="186.5" r="1.5"/><circle class="cls-7" cx="1405.5" cy="191.5" r="1.5"/><circle class="cls-7" cx="1410.5" cy="196.5" r="1.5"/><circle class="cls-7" cx="1415.5" cy="201.5" r="1.5"/><circle class="cls-7" cx="1420.5" cy="206.5" r="1.5"/><circle class="cls-7" cx="1425.5" cy="211.5" r="1.5"/><circle class="cls-7" cx="1430.5" cy="216.5" r="1.5"/><circle class="cls-7" cx="1387.5" cy="165.5" r="1.5"/><circle class="cls-7" cx="1392.5" cy="170.5" r="1.5"/><circle class="cls-7" cx="1397.5" cy="175.5" r="1.5"/><circle class="cls-7" cx="1402.5" cy="180.5" r="1.5"/><circle class="cls-7" cx="1407.5" cy="185.5" r="1.5"/><circle class="cls-7" cx="1412.5" cy="190.5" r="1.5"/><circle class="cls-7" cx="1417.5" cy="195.5" r="1.5"/><circle class="cls-7" cx="1422.5" cy="200.5" r="1.5"/><circle class="cls-7" cx="1427.5" cy="205.5" r="1.5"/><circle class="cls-7" cx="1432.5" cy="210.5" r="1.5"/><circle class="cls-7" cx="1437.5" cy="215.5" r="1.5"/><circle class="cls-7" cx="1439.5" cy="226.5" r="1.5"/><circle class="cls-7" cx="1444.5" cy="231.5" r="1.5"/><circle class="cls-7" cx="1449.5" cy="236.5" r="1.5"/><circle class="cls-7" cx="1454.5" cy="241.5" r="1.5"/><circle class="cls-7" cx="1459.5" cy="246.5" r="1.5"/><circle class="cls-7" cx="1464.5" cy="251.5" r="1.5"/><circle class="cls-7" cx="1469.5" cy="256.5" r="1.5"/><circle class="cls-7" cx="1474.5" cy="261.5" r="1.5"/><circle class="cls-7" cx="1479.5" cy="266.5" r="1.5"/><circle class="cls-7" cx="1484.5" cy="271.5" r="1.5"/><circle class="cls-7" cx="1489.5" cy="276.5" r="1.5"/><circle class="cls-7" cx="1435.5" cy="221.5" r="1.5"/><circle class="cls-7" cx="1441.5" cy="220.5" r="1.5"/><circle class="cls-7" cx="1446.5" cy="225.5" r="1.5"/><circle class="cls-7" cx="1451.5" cy="230.5" r="1.5"/><circle class="cls-7" cx="1456.5" cy="235.5" r="1.5"/><circle class="cls-7" cx="1461.5" cy="240.5" r="1.5"/><circle class="cls-7" cx="1466.5" cy="245.5" r="1.5"/><circle class="cls-7" cx="1471.5" cy="250.5" r="1.5"/><circle class="cls-7" cx="1476.5" cy="255.5" r="1.5"/><circle class="cls-7" cx="1481.5" cy="260.5" r="1.5"/><circle class="cls-7" cx="1486.5" cy="265.5" r="1.5"/><circle class="cls-7" cx="1491.5" cy="270.5" r="1.5"/><circle class="cls-7" cx="1496.5" cy="275.5" r="1.5"/><circle class="cls-7" cx="1394.5" cy="164.5" r="1.5"/><circle class="cls-7" cx="1399.5" cy="169.5" r="1.5"/><circle class="cls-7" cx="1404.5" cy="174.5" r="1.5"/><circle class="cls-7" cx="1409.5" cy="179.5" r="1.5"/><circle class="cls-7" cx="1414.5" cy="184.5" r="1.5"/><circle class="cls-7" cx="1419.5" cy="189.5" r="1.5"/><circle class="cls-7" cx="1424.5" cy="194.5" r="1.5"/><circle class="cls-7" cx="1429.5" cy="199.5" r="1.5"/><circle class="cls-7" cx="1434.5" cy="204.5" r="1.5"/><circle class="cls-7" cx="1439.5" cy="209.5" r="1.5"/><circle class="cls-7" cx="1444.5" cy="214.5" r="1.5"/><circle class="cls-7" cx="1401.5" cy="163.5" r="1.5"/><circle class="cls-7" cx="1406.5" cy="168.5" r="1.5"/><circle class="cls-7" cx="1411.5" cy="173.5" r="1.5"/><circle class="cls-7" cx="1416.5" cy="178.5" r="1.5"/><circle class="cls-7" cx="1421.5" cy="183.5" r="1.5"/><circle class="cls-7" cx="1426.5" cy="188.5" r="1.5"/><circle class="cls-7" cx="1431.5" cy="193.5" r="1.5"/><circle class="cls-7" cx="1436.5" cy="198.5" r="1.5"/><circle class="cls-7" cx="1441.5" cy="203.5" r="1.5"/><circle class="cls-7" cx="1446.5" cy="208.5" r="1.5"/><circle class="cls-7" cx="1451.5" cy="213.5" r="1.5"/><circle class="cls-7" cx="1453.5" cy="224.5" r="1.5"/><circle class="cls-7" cx="1458.5" cy="229.5" r="1.5"/><circle class="cls-7" cx="1463.5" cy="234.5" r="1.5"/><circle class="cls-7" cx="1468.5" cy="239.5" r="1.5"/><circle class="cls-7" cx="1473.5" cy="244.5" r="1.5"/><circle class="cls-7" cx="1478.5" cy="249.5" r="1.5"/><circle class="cls-7" cx="1483.5" cy="254.5" r="1.5"/><circle class="cls-7" cx="1488.5" cy="259.5" r="1.5"/><circle class="cls-7" cx="1493.5" cy="264.5" r="1.5"/><circle class="cls-7" cx="1498.5" cy="269.5" r="1.5"/><circle class="cls-7" cx="1503.5" cy="274.5" r="1.5"/><circle class="cls-7" cx="1449.5" cy="219.5" r="1.5"/><circle class="cls-7" cx="1455.5" cy="218.5" r="1.5"/><circle class="cls-7" cx="1460.5" cy="223.5" r="1.5"/><circle class="cls-7" cx="1465.5" cy="228.5" r="1.5"/><circle class="cls-7" cx="1470.5" cy="233.5" r="1.5"/><circle class="cls-7" cx="1475.5" cy="238.5" r="1.5"/><circle class="cls-7" cx="1480.5" cy="243.5" r="1.5"/><circle class="cls-7" cx="1485.5" cy="248.5" r="1.5"/><circle class="cls-7" cx="1490.5" cy="253.5" r="1.5"/><circle class="cls-7" cx="1495.5" cy="258.5" r="1.5"/><circle class="cls-7" cx="1500.5" cy="263.5" r="1.5"/><circle class="cls-7" cx="1505.5" cy="268.5" r="1.5"/><circle class="cls-7" cx="1510.5" cy="273.5" r="1.5"/><circle class="cls-7" cx="1408.5" cy="161.5" r="1.5"/><circle class="cls-7" cx="1413.5" cy="166.5" r="1.5"/><circle class="cls-7" cx="1418.5" cy="171.5" r="1.5"/><circle class="cls-7" cx="1423.5" cy="176.5" r="1.5"/><circle class="cls-7" cx="1428.5" cy="181.5" r="1.5"/><circle class="cls-7" cx="1433.5" cy="186.5" r="1.5"/><circle class="cls-7" cx="1438.5" cy="191.5" r="1.5"/><circle class="cls-7" cx="1443.5" cy="196.5" r="1.5"/><circle class="cls-7" cx="1448.5" cy="201.5" r="1.5"/><circle class="cls-7" cx="1453.5" cy="206.5" r="1.5"/><circle class="cls-7" cx="1458.5" cy="211.5" r="1.5"/><circle class="cls-7" cx="1467.5" cy="221.5" r="1.5"/><circle class="cls-7" cx="1472.5" cy="226.5" r="1.5"/><circle class="cls-7" cx="1477.5" cy="231.5" r="1.5"/><circle class="cls-7" cx="1482.5" cy="236.5" r="1.5"/><circle class="cls-7" cx="1487.5" cy="241.5" r="1.5"/><circle class="cls-7" cx="1492.5" cy="246.5" r="1.5"/><circle class="cls-7" cx="1497.5" cy="251.5" r="1.5"/><circle class="cls-7" cx="1502.5" cy="256.5" r="1.5"/><circle class="cls-7" cx="1507.5" cy="261.5" r="1.5"/><circle class="cls-7" cx="1512.5" cy="266.5" r="1.5"/><circle class="cls-7" cx="1517.5" cy="271.5" r="1.5"/><circle class="cls-7" cx="1463.5" cy="216.5" r="1.5"/><circle class="cls-7" cx="1499.5" cy="245.5" r="1.5"/><circle class="cls-7" cx="1504.5" cy="250.5" r="1.5"/><path class="cls-7" d="M1348.5,200a1.5,1.5,0,0,0,1.5-1.5,1.4,1.4,0,0,0-.15-.64l-2,2A1.4,1.4,0,0,0,1348.5,200Z"/><path class="cls-7" d="M1356.5,192a1.5,1.5,0,0,0,1.5-1.5,1.62,1.62,0,0,0-.07-.44l-1.92,1.85A1.37,1.37,0,0,0,1356.5,192Z"/><path class="cls-7" d="M1365.5,184a1.49,1.49,0,0,0,1.19-2.4l-2.13,2.06A1.48,1.48,0,0,0,1365.5,184Z"/><path class="cls-7" d="M1372.5,176a1.51,1.51,0,0,0,1.5-1.46l-1.51,1.46Z"/><path class="cls-7" d="M1382,166.85,1380.8,168A1.48,1.48,0,0,0,1382,166.85Z"/><circle class="cls-7" cx="1509.5" cy="255.5" r="1.5"/><circle class="cls-7" cx="1514.5" cy="260.5" r="1.5"/><circle class="cls-7" cx="1519.5" cy="265.5" r="1.5"/><circle class="cls-7" cx="1524.5" cy="270.5" r="1.5"/><path class="cls-7" d="M1424,170.5a1.5,1.5,0,0,0,1.5,1.5,1.48,1.48,0,0,0,1.3-.77l-2-2.06A1.49,1.49,0,0,0,1424,170.5Z"/><path class="cls-7" d="M1429,175.5a1.5,1.5,0,0,0,2.73.86l-2-2.12A1.51,1.51,0,0,0,1429,175.5Z"/><path class="cls-7" d="M1434,180.5a1.5,1.5,0,0,0,2.64,1l-2.06-2.14A1.47,1.47,0,0,0,1434,180.5Z"/><path class="cls-7" d="M1439,185.5a1.5,1.5,0,0,0,2.54,1.08l-2.07-2.16A1.46,1.46,0,0,0,1439,185.5Z"/><path class="cls-7" d="M1444,190.5a1.5,1.5,0,0,0,1.5,1.5,1.53,1.53,0,0,0,.93-.33l-2.06-2.15A1.51,1.51,0,0,0,1444,190.5Z"/><path class="cls-7" d="M1449,195.5a1.5,1.5,0,0,0,2.31,1.26l-2-2.12A1.43,1.43,0,0,0,1449,195.5Z"/><path class="cls-7" d="M1454,200.5a1.5,1.5,0,0,0,1.5,1.5,1.52,1.52,0,0,0,.68-.17l-2-2.06A1.47,1.47,0,0,0,1454,200.5Z"/><path class="cls-7" d="M1459,205.5a1.5,1.5,0,0,0,1.5,1.5,1.37,1.37,0,0,0,.54-.11l-1.91-2A1.5,1.5,0,0,0,1459,205.5Z"/><path class="cls-7" d="M1464,210.5a1.5,1.5,0,0,0,1.5,1.5,1.23,1.23,0,0,0,.39-.06l-1.81-1.89A1.33,1.33,0,0,0,1464,210.5Z"/><path class="cls-7" d="M1468,215.5a1.5,1.5,0,0,0,1.5,1.5,1.53,1.53,0,0,0,.93-.33l-2.06-2.15A1.51,1.51,0,0,0,1468,215.5Z"/><path class="cls-7" d="M1473,220.5a1.5,1.5,0,0,0,2.31,1.26l-2-2.12A1.43,1.43,0,0,0,1473,220.5Z"/><path class="cls-7" d="M1478,225.5a1.5,1.5,0,0,0,1.5,1.5,1.52,1.52,0,0,0,.68-.17l-2-2.07A1.54,1.54,0,0,0,1478,225.5Z"/><path class="cls-7" d="M1483,230.5a1.5,1.5,0,0,0,1.5,1.5,1.37,1.37,0,0,0,.54-.11l-1.91-2A1.5,1.5,0,0,0,1483,230.5Z"/><path class="cls-7" d="M1488,235.5a1.5,1.5,0,0,0,1.5,1.5,1.23,1.23,0,0,0,.39-.06l-1.81-1.89A1.33,1.33,0,0,0,1488,235.5Z"/><path class="cls-7" d="M1494.26,241.54l-1.24-1.27a1.79,1.79,0,0,0,0,.23,1.5,1.5,0,0,0,3,0,1,1,0,0,0,0-.25Z"/><path class="cls-7" d="M1390.5,161a1.47,1.47,0,0,0,1.25-.68c-.46.21-.91.44-1.36.67Z"/><path class="cls-7" d="M1396.5,160a1.5,1.5,0,0,0,1.5-1.5,1.8,1.8,0,0,0,0-.22,23.07,23.07,0,0,0-2.89.73A1.51,1.51,0,0,0,1396.5,160Z"/><path class="cls-7" d="M1415.5,162a1.55,1.55,0,0,0,.31,0c-.54-.3-1.1-.59-1.68-.86A1.5,1.5,0,0,0,1415.5,162Z"/><path class="cls-7" d="M1419,165.5a1.5,1.5,0,0,0,2.89.57c-.69-.56-1.46-1.15-2.31-1.75A1.51,1.51,0,0,0,1419,165.5Z"/><circle class="cls-7" cx="826.5" cy="123.5" r="1.5"/><path class="cls-7" d="M831.5,127a1.5,1.5,0,1,0,1.5,1.5,1.52,1.52,0,0,0-.21-.76l-.49-.5A1.48,1.48,0,0,0,831.5,127Z"/><path class="cls-7" d="M836.5,132a1.5,1.5,0,1,0,1.5,1.5,1.23,1.23,0,0,0-.06-.39l-1-1A1.33,1.33,0,0,0,836.5,132Z"/><path class="cls-7" d="M841.5,137a1.5,1.5,0,1,0,1.5,1.5c0-.05,0-.09,0-.14L841.7,137Z"/><path class="cls-7" d="M845,143.5a1.5,1.5,0,0,0,3,.07L846.48,142A1.5,1.5,0,0,0,845,143.5Z"/><path class="cls-7" d="M780,107.5a1.5,1.5,0,1,0,2-1.4c-.71.43-1.38.87-2,1.31C780,107.44,780,107.47,780,107.5Z"/><path class="cls-7" d="M806.5,105a1.53,1.53,0,0,0,1.1-.48c-.84-.36-1.71-.68-2.6-1A1.51,1.51,0,0,0,806.5,105Z"/></g><g id="Layer_16" data-name="Layer 16"><circle class="cls-7" cx="676.5" cy="210.5" r="1.5"/><circle class="cls-7" cx="681.5" cy="215.5" r="1.5"/><circle class="cls-7" cx="686.5" cy="220.5" r="1.5"/><circle class="cls-7" cx="691.5" cy="225.5" r="1.5"/><circle class="cls-7" cx="696.5" cy="230.5" r="1.5"/><circle class="cls-7" cx="701.5" cy="235.5" r="1.5"/><circle class="cls-7" cx="706.5" cy="240.5" r="1.5"/><circle class="cls-7" cx="711.5" cy="245.5" r="1.5"/><circle class="cls-7" cx="716.5" cy="250.5" r="1.5"/><circle class="cls-7" cx="721.5" cy="255.5" r="1.5"/><circle class="cls-7" cx="726.5" cy="260.5" r="1.5"/><circle class="cls-7" cx="731.5" cy="265.5" r="1.5"/><circle class="cls-7" cx="684.5" cy="203.5" r="1.5"/><circle class="cls-7" cx="689.5" cy="208.5" r="1.5"/><circle class="cls-7" cx="694.5" cy="213.5" r="1.5"/><circle class="cls-7" cx="699.5" cy="218.5" r="1.5"/><circle class="cls-7" cx="704.5" cy="223.5" r="1.5"/><circle class="cls-7" cx="709.5" cy="228.5" r="1.5"/><circle class="cls-7" cx="714.5" cy="233.5" r="1.5"/><circle class="cls-7" cx="719.5" cy="238.5" r="1.5"/><circle class="cls-7" cx="724.5" cy="243.5" r="1.5"/><circle class="cls-7" cx="729.5" cy="248.5" r="1.5"/><circle class="cls-7" cx="734.5" cy="253.5" r="1.5"/><circle class="cls-7" cx="739.5" cy="258.5" r="1.5"/><circle class="cls-7" cx="698.5" cy="195.5" r="1.5"/><circle class="cls-7" cx="703.5" cy="200.5" r="1.5"/><circle class="cls-7" cx="708.5" cy="205.5" r="1.5"/><circle class="cls-7" cx="713.5" cy="210.5" r="1.5"/><circle class="cls-7" cx="718.5" cy="215.5" r="1.5"/><circle class="cls-7" cx="723.5" cy="220.5" r="1.5"/><circle class="cls-7" cx="728.5" cy="225.5" r="1.5"/><circle class="cls-7" cx="733.5" cy="230.5" r="1.5"/><circle class="cls-7" cx="738.5" cy="235.5" r="1.5"/><circle class="cls-7" cx="743.5" cy="240.5" r="1.5"/><circle class="cls-7" cx="748.5" cy="245.5" r="1.5"/><circle class="cls-7" cx="706.5" cy="188.5" r="1.5"/><circle class="cls-7" cx="711.5" cy="193.5" r="1.5"/><circle class="cls-7" cx="716.5" cy="198.5" r="1.5"/><circle class="cls-7" cx="721.5" cy="203.5" r="1.5"/><circle class="cls-7" cx="726.5" cy="208.5" r="1.5"/><circle class="cls-7" cx="731.5" cy="213.5" r="1.5"/><circle class="cls-7" cx="736.5" cy="218.5" r="1.5"/><circle class="cls-7" cx="741.5" cy="223.5" r="1.5"/><circle class="cls-7" cx="746.5" cy="228.5" r="1.5"/><circle class="cls-7" cx="751.5" cy="233.5" r="1.5"/><circle class="cls-7" cx="756.5" cy="238.5" r="1.5"/><circle class="cls-7" cx="702.5" cy="183.5" r="1.5"/><circle class="cls-7" cx="692.5" cy="196.5" r="1.5"/><circle class="cls-7" cx="697.5" cy="201.5" r="1.5"/><circle class="cls-7" cx="702.5" cy="206.5" r="1.5"/><circle class="cls-7" cx="707.5" cy="211.5" r="1.5"/><circle class="cls-7" cx="712.5" cy="216.5" r="1.5"/><circle class="cls-7" cx="717.5" cy="221.5" r="1.5"/><circle class="cls-7" cx="722.5" cy="226.5" r="1.5"/><circle class="cls-7" cx="727.5" cy="231.5" r="1.5"/><circle class="cls-7" cx="732.5" cy="236.5" r="1.5"/><circle class="cls-7" cx="737.5" cy="241.5" r="1.5"/><circle class="cls-7" cx="742.5" cy="246.5" r="1.5"/><circle class="cls-7" cx="747.5" cy="251.5" r="1.5"/><circle class="cls-7" cx="700.5" cy="189.5" r="1.5"/><circle class="cls-7" cx="705.5" cy="194.5" r="1.5"/><circle class="cls-7" cx="710.5" cy="199.5" r="1.5"/><circle class="cls-7" cx="715.5" cy="204.5" r="1.5"/><circle class="cls-7" cx="720.5" cy="209.5" r="1.5"/><circle class="cls-7" cx="725.5" cy="214.5" r="1.5"/><circle class="cls-7" cx="730.5" cy="219.5" r="1.5"/><circle class="cls-7" cx="735.5" cy="224.5" r="1.5"/><circle class="cls-7" cx="740.5" cy="229.5" r="1.5"/><circle class="cls-7" cx="745.5" cy="234.5" r="1.5"/><circle class="cls-7" cx="750.5" cy="239.5" r="1.5"/><circle class="cls-7" cx="755.5" cy="244.5" r="1.5"/><path class="cls-7" d="M678.5,206a1.5,1.5,0,0,0,.85-2.73l-2.12,2A1.5,1.5,0,0,0,678.5,206Z"/><path class="cls-7" d="M686.5,199a1.5,1.5,0,0,0,.4-2.94L685,197.84A1.5,1.5,0,0,0,686.5,199Z"/><circle class="cls-7" cx="725.5" cy="161.5" r="1.5"/><path class="cls-7" d="M765.5,122a1.5,1.5,0,0,0,1.5-1.5,1.52,1.52,0,0,0-.17-.68l-2.07,2A1.54,1.54,0,0,0,765.5,122Z"/><path class="cls-7" d="M772.4,114.51a1.47,1.47,0,0,0,1.1.49,1.5,1.5,0,0,0,1.06-2.56Z"/><path class="cls-7" d="M693,190.5a1.5,1.5,0,1,0,1.5-1.5l-.22,0-1.25,1.2A1.27,1.27,0,0,0,693,190.5Z"/></g><g id="Layer_4" data-name="Layer 4"><path class="cls-8" d="M1514.44,362.33,1139.35,0H990.27L636.32,366.41c-30.86,31.95-4.52,87.66,41.31,87.37l806.09-5.11C1528.54,448.38,1547.72,394.47,1514.44,362.33Z"/></g><g id="Layer_15" data-name="Layer 15"><path class="cls-8" d="M203.81,371.52l300-287.74c14.49-13.9,38.23-12.67,53,2.76L850.67,392.9c23.59,24.6,7.93,63.77-25.08,62.74L231.75,437C198,436,180.17,394.19,203.81,371.52Z"/></g><g id="Layer_5" data-name="Layer 5"><path class="cls-8" d="M1363.74,365c-33.43,32.45-9.42,91,37.66,91.78l197.6,3.39V136.66Z"/></g><g id="Layer_1" data-name="Layer 1"><g class="cls-9"><rect class="cls-10" x="2" y="371" width="1597" height="529"/></g></g><g id="Layer_8" data-name="Layer 8"><g class="cls-11"><path class="cls-8" d="M1500.42,373.43l-128.61-.8-609.28-3.82L633.26,368,306,365.94c36.75,35.23,86,70,129.11,103.49C479,503,516.72,535.29,547.63,567.66c9.56,10,27.61,9.26,41-1.39,54.77-43.93,108.44-84,142-128.63,68,55.22,97.51,104.62,128.61,155.54C890.73,644.12,923.8,696.59,1008,758.52c31.29,22.7,64.2,21.51,71.89-1.18,24-61.1,86.58-106.9,154.24-156.38,68.29-48.84,141.62-101.37,201.57-161.23,48.14,52.85,96.85,98.16,164.32,145.55V374.06Z"/></g></g><g id="Layer_9" data-name="Layer 9"><path class="cls-8" d="M645,900H2V610H507.13a50.64,50.64,0,0,1,47.77,33.84Z"/></g><g id="Layer_13" data-name="Layer 13"><path class="cls-12" d="M653.06,320.82c14.53,25.68,8.6,36.6-4.24,31.05C538.1,304,559.7,348.5,520.4,372.22c-63.1,38.08-140.68,4-140.68-54.26,0-38,53-119.82,56.08-95.39,5.35,42.08,43.06,41.78,76.5,36.72C578.09,249.35,628.06,276.65,653.06,320.82Z"/><path class="cls-12" d="M199.44,370.32c-33.71,67.9-45.72,147.38-22.75,142,26.24-6.2,65.61-36,99.32-103.94s18.68-118.7,22.75-142C307,219.1,233.15,302.41,199.44,370.32Z"/><path class="cls-13" d="M261.91,537.91l32.41,33,45.56-8-21.37,41,1.66,52.56a3.71,3.71,0,0,1-6.5,2.56l-19.1-21.9-23.68,24.47a6,6,0,0,1-10.28-3.29l-5-33.69L229.1,636.1a3.48,3.48,0,0,1-4.3-5.09l30.63-47.3Z"/><path class="cls-13" d="M494,537.91l-32.41,33-45.56-8,21.37,41-1.65,52.56a3.71,3.71,0,0,0,6.5,2.56l19.09-21.9L485,661.63a6,6,0,0,0,10.29-3.29l5-33.69,26.48,11.45a3.48,3.48,0,0,0,4.3-5.09l-30.63-47.3Z"/><path class="cls-12" d="M510.73,396.16c11.51,55.07,29.36,102,16.53,144.93-5.86,19.57-14.32,63.34-56.85,70.17-43,6.89-74.42-28.5-99.67-29.13-20.59-.52-67,39.93-97.41,26.33-29.67-13.26-41.75-37.61-48-54.74-24-65.64.37-112.16,14.59-157.56,32.25-103,35.69-198.44,110.48-198.44S487.47,284.92,510.73,396.16Z"/><path class="cls-8" d="M488.37,389.32c24.4,54.07,43.34,107,38.89,151.77-2,20.33-14.32,63.34-56.85,70.17-43,6.89-74.42-28.5-99.67-29.13-20.59-.52-67,39.93-97.41,26.33-29.67-13.26-46.39-36.57-48-54.74-7.2-80.62,28-152.4,47.64-206.65,17-47.11,9.09-73.14,86.16-128C420.06,175.74,440.26,282.7,488.37,389.32Z"/><path class="cls-8" d="M445.75,163.42c6.6,57.21-30.72,107.39-93.91,114.68s-108.38-32.27-115-89.49S264,86.12,327.22,78.82,439.15,106.21,445.75,163.42Z"/><path class="cls-12" d="M331.19,208.07l23.81-3.6s-12.25-81.93,16.19-89.6c36.51-9.85,49.6,28.83,49.6,28.83s30,.91,15.94,58.72c-3.47,14.24-11.24,40.07-11.24,40.07s10.62-4.6,20.45-25.87c12.43-26.89,14.67-58.52-2.71-90.18-18.8-34.22-50.66-46.46-59-49.19-18.06-5.93-42.62-10-65.21-5-27.25,6-39.33,9.76-59.23,26.86s-33,41.31-35,57.65c-2.11,17.16-2.73,37.19,9.91,62.34s37.92,44.08,45.59,48.47,20.56,6,20.56,6-28.06-22.44-40.68-43c-31.8-51.9-5.39-65.07-5.39-65.07s4-30.23,19.24-37.87c14.37-7.18,22-6.49,37,1.77C324.91,137,331.19,208.07,331.19,208.07Z"/><path class="cls-14" d="M349.3,243c-17.12,2-38.22-30.31-38.22-30.31,10.6-6.3,22.89-1.13,33.49-7.43,12,3.94,22.37-3.59,34.39.35C379,205.65,366.43,241.07,349.3,243Z"/><path class="cls-13" d="M348.47,226.63s-77-15.76-62.3-15,43.24-15.29,58.32-17,53.7,7.16,60.66,3.3S348.47,226.63,348.47,226.63Z"/><ellipse class="cls-8" cx="381.49" cy="163.42" rx="16.21" ry="21.62" transform="translate(-10.14 26.08) rotate(-3.86)"/><path class="cls-12" d="M382.11,185.18c-4.07,0-8-2-11.14-5.63a25.67,25.67,0,0,1-5.81-15c-.81-12,5.86-22.22,14.87-22.82s17,8.64,17.8,20.62S392,184.54,383,185.15C382.68,185.17,382.39,185.18,382.11,185.18ZM380.87,142c-.27,0-.55,0-.82,0-8.83.6-15.37,10.69-14.58,22.49a25.4,25.4,0,0,0,5.74,14.84c3.29,3.83,7.45,5.77,11.73,5.49,8.83-.59,15.37-10.68,14.57-22.49C396.74,150.9,389.36,142,380.87,142Z"/><ellipse class="cls-8" cx="300.67" cy="172.78" rx="16.21" ry="21.62" transform="translate(-10.96 20.65) rotate(-3.86)"/><path class="cls-12" d="M301.29,194.53c-4.08,0-8-2-11.15-5.63a27.15,27.15,0,0,1-2.07-30.69c2.81-4.32,6.76-6.87,11.13-7.16,9-.6,17,8.64,17.8,20.62a25.7,25.7,0,0,1-3.73,15.67c-2.81,4.32-6.76,6.87-11.13,7.16ZM300,151.34c-.27,0-.54,0-.82,0-4.27.29-8.14,2.78-10.89,7a26.84,26.84,0,0,0,2.05,30.32c3.3,3.83,7.46,5.77,11.73,5.49s8.14-2.78,10.89-7a25.39,25.39,0,0,0,3.69-15.48C315.91,160.25,308.53,151.34,300,151.34Z"/><ellipse class="cls-15" cx="381.75" cy="167.19" rx="13.37" ry="17.82" transform="translate(-10.4 26.1) rotate(-3.86)"/><ellipse class="cls-15" cx="300.67" cy="176.33" rx="13.37" ry="17.82" transform="translate(-11.2 20.66) rotate(-3.86)"/><ellipse class="cls-12" cx="381.99" cy="169.47" rx="10.73" ry="14.81" transform="matrix(1, -0.07, 0.07, 1, -10.55, 26.12)"/><ellipse class="cls-12" cx="300.67" cy="178.61" rx="10.73" ry="14.81" transform="translate(-11.35 20.67) rotate(-3.86)"/><circle class="cls-8" cx="373.51" cy="156.76" r="3.68"/><circle class="cls-8" cx="379.74" cy="162.88" r="1.84"/><circle class="cls-8" cx="289.25" cy="165.44" r="3.68"/><circle class="cls-8" cx="295.47" cy="171.55" r="1.84"/></g><g id="Layer_11" data-name="Layer 11"><rect class="cls-16" x="606" y="354" width="248" height="91" rx="33.98"/><path d="M684.81,390.46H673v-3.63a7,7,0,0,0-.46-3.24,1.66,1.66,0,0,0-1.51-.69,1.91,1.91,0,0,0-1.74.94,5.44,5.44,0,0,0-.59,2.84,8.13,8.13,0,0,0,.66,3.7q.63,1.25,3.6,3,8.52,5,10.72,8.29t2.21,10.44c0,3.49-.41,6.07-1.22,7.72a9.6,9.6,0,0,1-4.74,4.16,18.75,18.75,0,0,1-8.17,1.68,18.32,18.32,0,0,1-8.74-1.93,9.56,9.56,0,0,1-4.74-4.94,25.47,25.47,0,0,1-1.12-8.51v-3.21H669v6a7.86,7.86,0,0,0,.5,3.54,1.91,1.91,0,0,0,1.77.79,2.08,2.08,0,0,0,1.89-1,5.67,5.67,0,0,0,.62-3q0-4.32-1.18-5.66a37.06,37.06,0,0,0-6-4.45,58.73,58.73,0,0,1-6.3-4.57,10.59,10.59,0,0,1-2.55-3.94,17.18,17.18,0,0,1-1-6.41c0-3.76.48-6.5,1.44-8.24a9.72,9.72,0,0,1,4.65-4.07,18.48,18.48,0,0,1,7.75-1.47,20.17,20.17,0,0,1,8.46,1.61,8.85,8.85,0,0,1,4.63,4c.76,1.62,1.13,4.38,1.13,8.28Z"/><path d="M715.54,375.63v9.81H708v39.2H695.23v-39.2h-7.54v-9.81Z"/><path d="M738,375.63l7.29,49h-13l-.68-8.81H727l-.77,8.81H713.08l6.5-49Zm-6.76,31.52q-1-8.34-1.94-20.59-1.95,14.07-2.44,20.59Z"/><path d="M747.45,375.63h9q9,0,12.22.7a8.39,8.39,0,0,1,5.2,3.55q2,2.87,2,9.13,0,5.73-1.43,7.69t-5.6,2.36c2.53.63,4.22,1.47,5.09,2.52a7.37,7.37,0,0,1,1.62,2.89,45.68,45.68,0,0,1,.32,7.25v12.92H764.07V408.36c0-2.63-.21-4.25-.62-4.88s-1.5-.94-3.25-.94v22.1H747.45ZM760.2,384v10.9a5.65,5.65,0,0,0,3-.59c.57-.4.86-1.67.86-3.83v-2.7c0-1.55-.28-2.57-.83-3.06A4.78,4.78,0,0,0,760.2,384Z"/><path d="M806.51,375.63v9.81H799v39.2H786.2v-39.2h-7.54v-9.81Z"/></g><g id="Layer_12" data-name="Layer 12"><polygon class="cls-17" points="1504.3 716.59 1496.01 717.75 1503.49 721.66 1504.3 716.59"/><polygon class="cls-17" points="1502.09 700.89 1484.71 711.84 1491.3 715.28 1502.09 700.89"/><polygon class="cls-17" points="1517.49 723.49 1510.68 725.43 1516.97 728.72 1517.49 723.49"/><polygon class="cls-17" points="1527.13 725 1520.69 730.67 1525.23 733.05 1527.13 725"/><path class="cls-17" d="M1465.52,692.18l-7.24,5.82,7.7,4C1465.71,697.13,1465.52,692.18,1465.52,692.18Z"/><polygon class="cls-17" points="1541.29 728.94 1530.87 735.99 1536.15 738.76 1541.29 728.94"/><path class="cls-17" d="M1481.41,695.28s-5,5.45-9.14,10l8.45,4.43Z"/><polygon class="cls-17" points="1443.37 685.8 1437.73 687.25 1445.2 691.16 1443.37 685.8"/><polygon class="cls-17" points="1455.36 689.47 1446.98 692.09 1454.49 696.02 1455.36 689.47"/><polygon class="cls-17" points="1442.65 796.78 1437.57 794.12 1435.76 801.39 1442.65 796.78"/><polygon class="cls-17" points="1434.73 792.64 1428.23 789.23 1429.2 796.69 1434.73 792.64"/><polygon class="cls-17" points="1420.3 785.09 1417.91 783.83 1416.76 786.36 1420.3 785.09"/><polygon class="cls-17" points="1490.63 821.89 1480.6 816.64 1482.76 828.54 1490.63 821.89"/><polygon class="cls-17" points="1416.55 783.12 1414.59 782.1 1412.75 786.81 1416.55 783.12"/><polygon class="cls-17" points="1477.45 815 1469.25 810.7 1469.15 819.72 1477.45 815"/><polygon class="cls-17" points="1449.11 800.16 1445.31 798.18 1442.81 802.96 1449.11 800.16"/><polygon class="cls-17" points="1462.81 807.34 1453.52 802.47 1453.16 808.38 1462.81 807.34"/><polygon class="cls-17" points="1392.66 770.62 1386.63 767.46 1384.64 781.44 1392.66 770.62"/><polygon class="cls-17" points="1398.89 773.88 1395.47 772.09 1394 779.54 1398.89 773.88"/><polygon class="cls-17" points="1404.26 776.69 1401.01 774.99 1400.56 780.43 1404.26 776.69"/><polygon class="cls-17" points="1413.13 781.33 1408.5 778.91 1405.63 789.02 1413.13 781.33"/><path class="cls-18" d="M1421.62,678.82s-9.87,2.65-28.63,38.49c-17.89,34.19-15.31,45.47-15.31,45.47l6.69,3.5,3-4.21-.77,5.39,6,3.16,4.23-5.7-1.42,7.17,3.42,1.79,2.43-2.82L1401,775l3.25,1.7,6.83-6.88-2.59,9.1,4.63,2.42,2.92-3-1.46,3.76,2,1,3-2.93-1.67,3.64,2.39,1.26,7.06-2.53.87,6.67,6.5,3.41,3.93-2.89-1.09,4.37,5.08,2.66,5.22-3.48-2.56,4.88,3.8,2,4.67-2.07-.26,4.38,9.29,4.86,6.48-.7,0,4.07,8.2,4.3,2.58-1.47.57,3.11,10,5.25,7.64-6.46-2.77,9,2.14,1.12a203.41,203.41,0,0,1,43.94-84l-1.76-.92-7.38,5.17,3.71-7.09-5.28-2.77-7.53,5.1,1.89-8-4.54-2.38-4.3,3.78.58-5.73-6.28-3.29-8.18,2.33,1-6.09-7.48-3.92-7.34,1,2.63-3.5-6.59-3.44-4.22,2.66.23-4.75-8.45-4.43c-2.69,3-5,5.64-5.27,6.17-.36.7-.74-4.35-1-9.46l-7.7-4-4.54,3.66.75-5.64-7.51-3.93-1.32.41-.46-1.34-7.47-3.91-7.74,2-.88-6.49Z"/><polygon class="cls-17" points="1442.24 796.57 1437.96 794.33 1436.43 800.45 1442.24 796.57"/><polygon class="cls-17" points="1434.37 792.45 1429.09 789.68 1429.88 795.75 1434.37 792.45"/><polygon class="cls-17" points="1416.36 783.02 1414.85 782.23 1413.43 785.87 1416.36 783.02"/><polygon class="cls-17" points="1412.97 781.25 1408.86 779.1 1406.3 788.08 1412.97 781.25"/><polygon class="cls-17" points="1490.36 821.75 1481.54 817.13 1483.44 827.6 1490.36 821.75"/><polygon class="cls-17" points="1476.94 814.73 1469.91 811.05 1469.83 818.78 1476.94 814.73"/><polygon class="cls-17" points="1461.44 806.62 1454.12 802.78 1453.84 807.44 1461.44 806.62"/><polygon class="cls-17" points="1448.45 799.82 1445.46 798.25 1443.49 802.02 1448.45 799.82"/><polygon class="cls-17" points="1419.51 784.67 1418.11 783.94 1417.43 785.41 1419.51 784.67"/><polygon class="cls-17" points="1392.65 770.62 1387.14 767.73 1385.32 780.49 1392.65 770.62"/><polygon class="cls-17" points="1398.8 773.83 1395.92 772.33 1394.68 778.6 1398.8 773.83"/><polygon class="cls-17" points="1404.1 776.61 1401.58 775.29 1401.24 779.49 1404.1 776.61"/><polygon class="cls-17" points="1535.92 738.64 1540.44 730 1531.27 736.21 1535.92 738.64"/><polygon class="cls-17" points="1501.25 701.96 1485.17 712.08 1491.26 715.27 1501.25 701.96"/><polygon class="cls-17" points="1516.65 724.55 1511.7 725.96 1516.27 728.35 1516.65 724.55"/><polygon class="cls-17" points="1526.28 726.06 1520.91 730.78 1524.7 732.77 1526.28 726.06"/><polygon class="cls-17" points="1503.46 717.65 1497.43 718.49 1502.87 721.34 1503.46 717.65"/><path class="cls-17" d="M1464.68,693.24l-6.11,4.91,6.48,3.4C1464.82,697.21,1464.68,693.24,1464.68,693.24Z"/><polygon class="cls-17" points="1442.53 686.86 1438.81 687.82 1443.73 690.39 1442.53 686.86"/><polygon class="cls-17" points="1454.51 690.53 1447.93 692.59 1453.83 695.67 1454.51 690.53"/><path class="cls-19" d="M1522.5,742.15l2.2-9.38-3.79-2-5.36,4.73.72-7.16L1511.7,726l-10,2.86,1.2-7.48-5.44-2.85-9.6,1.35,3.43-4.57-6.09-3.19-5.52,3.48.29-6.22-7.6-4c-3.06,3.4-5.87,6.59-6.18,7.19-.4.77-.82-5.43-1.11-11l-6.48-3.4-5.68,4.56.94-7-5.9-3.08-3.12,1-1.08-3.17-4.92-2.57-9.66,2.47-1.11-8.11-4.19-2.19a203.41,203.41,0,0,1-43.94,84l4.46,2.33,3.7-5.15-.93,6.6,5.51,2.88,4.92-6.63-1.65,8.35,2.88,1.5,3.2-3.71-.42,5.17,2.52,1.31,7.67-7.74-2.91,10.24,4.11,2.15,3.76-3.85-1.89,4.83,1.52.79,3.89-3.77-2.14,4.69,1.4.73,8.52-3,1.06,8.06,5.28,2.77,5-3.64-1.38,5.52,4.28,2.24,6.3-4.21-3.08,5.89,3,1.57,6-2.67-.34,5.64,7.32,3.82,8.53-.92-.06,5.36,7,3.68,3.77-2.14.83,4.55,8.82,4.61,8.59-7.26-3.12,10.13,4,2.11s19.11-14.77,30.9-37.31c9.67-18.46,13-46.65,13-46.65l-3.61-1.89-8.61,6,4.33-8.27-4.65-2.43Z"/><line class="cls-20" x1="1439.34" y1="788.81" x2="1434.37" y2="792.45"/><polygon class="cls-21" points="1480.03 813.53 1481.54 817.13 1484.24 818.55 1520.51 742.97 1474.06 813.22 1476.94 814.73 1480.03 813.53"/><polygon class="cls-21" points="1391.69 770.11 1392.65 770.62 1396.89 764.92 1395.47 772.09 1398.8 773.83 1401.33 771.06 1401.01 774.99 1403.02 776.04 1436.1 705.84 1391.69 770.11"/><polygon class="cls-21" points="1479.94 709.34 1474.09 706.28 1440.82 790.88 1485.67 712.34 1479.64 715.56 1479.94 709.34"/><polygon class="cls-18" points="1480.72 709.75 1479.94 709.34 1479.64 715.56 1480.72 709.75"/><polygon class="cls-21" points="1479.64 715.56 1485.67 712.34 1485.17 712.08 1479.64 715.56"/><path d="M1429,732.83l-5.2-2.82.86-1.6a3.56,3.56,0,0,0,.58-1.53.85.85,0,0,0-.5-.67,1,1,0,0,0-1,0,2.7,2.7,0,0,0-.94,1.11,4,4,0,0,0-.59,1.78,4.86,4.86,0,0,0,.87,2.18q2.54,4.25,2.74,6.2t-1.52,5.11a9.39,9.39,0,0,1-2.38,3.11,4.88,4.88,0,0,1-3.08.7,9.47,9.47,0,0,1-4-1.21,9.31,9.31,0,0,1-3.38-2.94,4.74,4.74,0,0,1-.9-3.3,12.54,12.54,0,0,1,1.53-4l.77-1.41,5.2,2.82-1.42,2.62a4,4,0,0,0-.63,1.68,1,1,0,0,0,.59.76,1,1,0,0,0,1.08,0,2.86,2.86,0,0,0,1-1.16,4.54,4.54,0,0,0,.83-2.77,18.48,18.48,0,0,0-1.56-3.38,27.24,27.24,0,0,1-1.67-3.51,5.32,5.32,0,0,1-.19-2.34,8.69,8.69,0,0,1,1.08-3.06,9,9,0,0,1,2.6-3.28,4.85,4.85,0,0,1,3-.68,9.27,9.27,0,0,1,3.76,1.2,10.14,10.14,0,0,1,3.34,2.73,4.48,4.48,0,0,1,1.07,2.88,10.89,10.89,0,0,1-1.48,3.91Z"/><path d="M1434.76,727.51l9.34,5.07-2.34,4.31-3.74-2-2.21,4.09,3.5,1.89-2.23,4.1-3.5-1.89-2.56,4.73,4.11,2.23-2.34,4.31-9.71-5.26Z"/><path d="M1457,739.58l-2.34,4.31-3.33-1.8L1442,759.32l-5.6-3,9.34-17.23-3.31-1.8,2.33-4.31Z"/><path d="M1469.57,746.39l-2.34,4.31-3.33-1.8-9.34,17.23-5.6-3,9.34-17.23-3.31-1.8,2.34-4.31Z"/><path d="M1476.45,750.12l-11.69,21.54-5.6-3,11.68-21.54Z"/><path d="M1491.2,758.12l-11.68,21.55-4.91-2.67,2.4-11.37-5.31,9.79-4.69-2.54,11.69-21.54,4.68,2.54-2.12,11.4,5.26-9.7Z"/><path d="M1502,774.24l-5.6-3,1.06-2a10.86,10.86,0,0,0,1.1-2.4.81.81,0,0,0-.51-.88.79.79,0,0,0-.92,0,7.48,7.48,0,0,0-1.3,2l-5.6,10.33a6.87,6.87,0,0,0-.85,2,.82.82,0,0,0,.5.87.93.93,0,0,0,1.11-.07,7,7,0,0,0,1.31-1.9l1.39-2.56-1.13-.61,1.77-3.27,6.56,3.55-6.27,11.57L1491.1,786l.32-1.83a4.45,4.45,0,0,1-2.25.72,4.68,4.68,0,0,1-2.33-.62,6.08,6.08,0,0,1-2.27-2.12,5.68,5.68,0,0,1-1-2.71,5.9,5.9,0,0,1,.35-2.56,28.9,28.9,0,0,1,1.64-3.42l3.48-6.4a24.1,24.1,0,0,1,2.76-4.3,5.28,5.28,0,0,1,3.3-1.53,7.7,7.7,0,0,1,4.71,1.05,8.6,8.6,0,0,1,3.53,3.23,5.44,5.44,0,0,1,.82,3.55,14.54,14.54,0,0,1-1.7,4.3Z"/><path d="M1516.81,780.45l-5.2-2.83.86-1.59a3.41,3.41,0,0,0,.57-1.53.83.83,0,0,0-.5-.67,1,1,0,0,0-1,0,2.69,2.69,0,0,0-.93,1.11,4,4,0,0,0-.59,1.78,4.78,4.78,0,0,0,.87,2.18q2.53,4.25,2.73,6.19a9.49,9.49,0,0,1-1.52,5.12,9,9,0,0,1-2.38,3.1,4.7,4.7,0,0,1-3.07.7,9.25,9.25,0,0,1-4-1.21,9.11,9.11,0,0,1-3.38-2.93,4.8,4.8,0,0,1-.91-3.3,12.61,12.61,0,0,1,1.54-4l.76-1.41,5.21,2.82-1.43,2.62a4,4,0,0,0-.62,1.67,1,1,0,0,0,.59.77,1,1,0,0,0,1.07,0,2.83,2.83,0,0,0,1-1.15,4.54,4.54,0,0,0,.83-2.77,18.17,18.17,0,0,0-1.56-3.38,30.85,30.85,0,0,1-1.68-3.51,5.33,5.33,0,0,1-.18-2.34,8.56,8.56,0,0,1,1.08-3.06,9,9,0,0,1,2.6-3.28,4.84,4.84,0,0,1,3-.68,9.28,9.28,0,0,1,3.75,1.2,10.14,10.14,0,0,1,3.34,2.72,4.41,4.41,0,0,1,1.07,2.88,10.51,10.51,0,0,1-1.47,3.91Z"/><path class="cls-10" d="M1440.88,258.77l-5.69,5.5-1.63-1.68a4.61,4.61,0,0,0-1.67-1.29,1.14,1.14,0,0,0-1,.39,1.29,1.29,0,0,0-.42,1.24,3.47,3.47,0,0,0,1,1.59,5,5,0,0,0,2,1.41,6.44,6.44,0,0,0,3.07-.29c4.24-1.08,7.2-1.47,8.87-1.15s3.6,1.58,5.75,3.81a11.43,11.43,0,0,1,2.88,4.15,6.35,6.35,0,0,1-.4,4.13,12.89,12.89,0,0,1-3.18,4.58,12.45,12.45,0,0,1-5.06,3.17,6.18,6.18,0,0,1-4.49-.08,15.81,15.81,0,0,1-4.36-3.42l-1.44-1.49,5.69-5.51,2.67,2.77a5,5,0,0,0,1.83,1.41,1.35,1.35,0,0,0,1.21-.46,1.43,1.43,0,0,0,.46-1.35,3.59,3.59,0,0,0-1-1.66c-1.29-1.34-2.33-2-3.11-2.07a24.86,24.86,0,0,0-4.86.71,39.38,39.38,0,0,1-5.07.81,6.89,6.89,0,0,1-3-.63,10.71,10.71,0,0,1-3.37-2.5,11.22,11.22,0,0,1-3-4.48,6.39,6.39,0,0,1,.41-4.05,12.73,12.73,0,0,1,3.06-4.29,14,14,0,0,1,4.78-3.2,5.86,5.86,0,0,1,4-.28,13.23,13.23,0,0,1,4.27,3.31Z"/><path class="cls-10" d="M1452.67,255.93l-5.51,5.34L1446,260a11.94,11.94,0,0,1-2.71-3.83,6.55,6.55,0,0,1,.07-4.08,11.06,11.06,0,0,1,3.17-4.81c2-1.93,3.81-3,5.48-3.34a5.53,5.53,0,0,1,4.24.73,53.92,53.92,0,0,1,6.21,5.8l9,9.34-5.71,5.54-1.61-1.66a5.29,5.29,0,0,1,.06,2.84,5.45,5.45,0,0,1-1.54,2.47,7.09,7.09,0,0,1-3.64,1.9q-2.1.42-4.83-2.4l-1.48-1.53c-1.35-1.39-2-2.56-2.08-3.51s.53-2.63,1.68-5.05q1.83-3.9,1.67-4.48a5.39,5.39,0,0,0-1.29-1.74,7.22,7.22,0,0,0-2.07-1.68,1.08,1.08,0,0,0-1.18.29c-.4.38-.52.75-.38,1.09a10.29,10.29,0,0,0,1.72,2.07Zm4.34.74a6,6,0,0,0,0,3.26,9.27,9.27,0,0,0,1.65,2.15,7.46,7.46,0,0,0,2,1.68,1.07,1.07,0,0,0,1.18-.34,1,1,0,0,0,.4-1,7.06,7.06,0,0,0-1.51-1.9Z"/><path class="cls-10" d="M1467.6,227.48l15.29,21.28-7.68,7.44-21-15.75,5.25-5.09,14.82,12c-.84-1.13-3-3.77-6.42-7.95q-2.88-3.48-5.52-6.83Z"/><path class="cls-10" d="M1491.1,223.39l-7.61,7.37,3.9,4a6.07,6.07,0,0,0,1.77,1.44,1,1,0,0,0,1.08-.34,1.23,1.23,0,0,0,.43-1.35,7.32,7.32,0,0,0-1.59-2.09L1486.7,230l5.57-5.39,1.33,1.37a16.93,16.93,0,0,1,2.34,2.87,7.25,7.25,0,0,1,.86,3,7,7,0,0,1-.57,3.61,11.62,11.62,0,0,1-2.68,3.62,13.24,13.24,0,0,1-3.79,2.67,7.27,7.27,0,0,1-3.6.72,7.12,7.12,0,0,1-3-.92,17.41,17.41,0,0,1-3.37-2.87l-5.26-5.43a12.32,12.32,0,0,1-3-4.51,6.41,6.41,0,0,1,.14-4.33,11.61,11.61,0,0,1,2.85-4.22,11.47,11.47,0,0,1,5-3,7,7,0,0,1,4.58.21,15.2,15.2,0,0,1,4.71,3.57Zm-8.83,2.68-1.32-1.36a9.57,9.57,0,0,0-2-1.71.89.89,0,0,0-1.07.21c-.4.4-.54.76-.41,1.09a10.32,10.32,0,0,0,1.73,2.07l1.32,1.36Z"/><path class="cls-10" d="M1492.71,198.32l2.84,2.93,1.59-1.53,2.85,2.94-1.58,1.54,9.65,10c1.19,1.22,1.91,1.84,2.18,1.85s.88-.44,1.84-1.37l2.91,3-2.37,2.3a24.91,24.91,0,0,1-3,2.61,4.35,4.35,0,0,1-2.23.73,3.43,3.43,0,0,1-2.11-.55,31.69,31.69,0,0,1-3.58-3.37l-9.16-9.45-1.26,1.22-2.86-2.94,1.27-1.23-2.85-2.93Z"/><path class="cls-10" d="M1499.9,188.23l4.95,5.11a7.38,7.38,0,0,1,.66-2.6,7.17,7.17,0,0,1,1.55-2.16,6.18,6.18,0,0,1,3.36-1.79,4.3,4.3,0,0,1,3,.46,25.5,25.5,0,0,1,3.74,3.38l12.44,12.84-5.88,5.69-12.7-13.1a10.79,10.79,0,0,0-2.19-1.93,1,1,0,0,0-1.19.27,1,1,0,0,0-.27,1.18,8.29,8.29,0,0,0,1.65,2.07l12.87,13.28-5.87,5.7-22-22.71Z"/><path class="cls-10" d="M1536.24,179.64l-7.6,7.37,3.9,4a6.22,6.22,0,0,0,1.76,1.45,1,1,0,0,0,1.08-.34,1.24,1.24,0,0,0,.43-1.35,7.07,7.07,0,0,0-1.59-2.1l-2.38-2.45,5.57-5.4,1.33,1.38a15.65,15.65,0,0,1,2.34,2.87,7.4,7.4,0,0,1,.87,3,7.28,7.28,0,0,1-.57,3.61,11.79,11.79,0,0,1-2.69,3.62,13.55,13.55,0,0,1-3.78,2.67,7.43,7.43,0,0,1-3.6.72,7.07,7.07,0,0,1-3-.93,17.22,17.22,0,0,1-3.37-2.86l-5.26-5.43a12.53,12.53,0,0,1-3.05-4.51,6.41,6.41,0,0,1,.15-4.33,11.28,11.28,0,0,1,2.85-4.22,11.47,11.47,0,0,1,5-3.05,7,7,0,0,1,4.58.22,15.06,15.06,0,0,1,4.72,3.57Zm-8.82,2.68L1526.1,181a9.37,9.37,0,0,0-2-1.72.89.89,0,0,0-1.06.22c-.41.39-.55.76-.41,1.09a10.11,10.11,0,0,0,1.72,2.07l1.32,1.36Z"/><path class="cls-10" d="M1549.9,153.09l-5.68,5.51-1.63-1.68a4.53,4.53,0,0,0-1.68-1.29,1.12,1.12,0,0,0-1,.38,1.31,1.31,0,0,0-.42,1.25,3.35,3.35,0,0,0,1,1.59,5.06,5.06,0,0,0,2,1.41,6.48,6.48,0,0,0,3.08-.29c4.24-1.08,7.19-1.47,8.87-1.15s3.59,1.58,5.75,3.81a11.43,11.43,0,0,1,2.88,4.15,6.36,6.36,0,0,1-.41,4.13,12.86,12.86,0,0,1-3.17,4.58,12.58,12.58,0,0,1-5.06,3.17,6.24,6.24,0,0,1-4.49-.08,15.81,15.81,0,0,1-4.36-3.42l-1.44-1.49,5.68-5.51,2.68,2.77a4.7,4.7,0,0,0,1.83,1.4,1.28,1.28,0,0,0,1.2-.46,1.39,1.39,0,0,0,.46-1.34,3.55,3.55,0,0,0-1-1.66c-1.3-1.34-2.33-2-3.11-2.07a24.67,24.67,0,0,0-4.86.71,39.72,39.72,0,0,1-5.08.81,6.85,6.85,0,0,1-3-.63,10.87,10.87,0,0,1-3.37-2.5,11.07,11.07,0,0,1-3-4.49,6.45,6.45,0,0,1,.4-4,12.84,12.84,0,0,1,3.07-4.28,14,14,0,0,1,4.78-3.2,5.86,5.86,0,0,1,4-.28,13.22,13.22,0,0,1,4.26,3.31Z"/><path class="cls-10" d="M1572.11,144.87l-7.61,7.37,3.9,4a6.07,6.07,0,0,0,1.77,1.44,1,1,0,0,0,1.08-.34,1.23,1.23,0,0,0,.43-1.35,7.46,7.46,0,0,0-1.59-2.09l-2.38-2.45,5.57-5.4,1.33,1.37a16.93,16.93,0,0,1,2.34,2.87,7.34,7.34,0,0,1,.86,3,7.1,7.1,0,0,1-.57,3.62,11.74,11.74,0,0,1-2.68,3.62,13.19,13.19,0,0,1-3.79,2.66,7.29,7.29,0,0,1-3.6.73,7,7,0,0,1-3-.93,17.06,17.06,0,0,1-3.37-2.87l-5.26-5.42a12.43,12.43,0,0,1-3-4.52,6.41,6.41,0,0,1,.14-4.33,12.95,12.95,0,0,1,7.81-7.26,7,7,0,0,1,4.58.21,15.1,15.1,0,0,1,4.71,3.58Zm-8.83,2.68-1.32-1.36a9.31,9.31,0,0,0-2-1.71.9.9,0,0,0-1.07.21c-.4.4-.54.76-.41,1.09a9.76,9.76,0,0,0,1.73,2.07l1.32,1.36Z"/><path class="cls-10" d="M1576.92,135.5l-5.51,5.34-1.21-1.25a11.84,11.84,0,0,1-2.71-3.83,6.52,6.52,0,0,1,.07-4.07,11.08,11.08,0,0,1,3.17-4.82c2-1.93,3.81-3,5.48-3.34a5.49,5.49,0,0,1,4.23.74,52.88,52.88,0,0,1,6.22,5.8l9,9.34-5.71,5.53-1.61-1.65a5.29,5.29,0,0,1,.06,2.84,5.41,5.41,0,0,1-1.55,2.46,7,7,0,0,1-3.63,1.91q-2.1.41-4.83-2.41l-1.48-1.53c-1.35-1.39-2-2.56-2.08-3.51s.53-2.63,1.68-5.05q1.83-3.9,1.67-4.47a5.39,5.39,0,0,0-1.29-1.74,7.22,7.22,0,0,0-2.07-1.68,1.08,1.08,0,0,0-1.18.28c-.4.39-.52.75-.38,1.09a10.29,10.29,0,0,0,1.72,2.07Zm4.34.75a5.94,5.94,0,0,0,0,3.25,8.57,8.57,0,0,0,1.65,2.16,7.35,7.35,0,0,0,2,1.67,1,1,0,0,0,1.18-.33,1,1,0,0,0,.4-1,7.08,7.08,0,0,0-1.51-1.89Z"/><path class="cls-22" d="M1338.27,187.92l2-2a21.85,21.85,0,0,1,2.87-2.55,2.6,2.6,0,0,1,1.94-.36,5.05,5.05,0,0,1,2.47,1.58,4.56,4.56,0,0,1,1.39,2,2.35,2.35,0,0,1-.73,1.76,3,3,0,0,1,1.69-.56,2.29,2.29,0,0,1,1,.28,14.15,14.15,0,0,1,1.67,1.54l2.87,2.88-2.64,2.62-3.6-3.62a3.5,3.5,0,0,0-1.22-.95q-.35-.08-.93.51L1352,196l-2.83,2.82ZM1343,187l2.41,2.42a1.72,1.72,0,0,0,.54-.79c0-.22-.18-.57-.65-1l-.6-.6c-.34-.34-.63-.51-.86-.49A1.44,1.44,0,0,0,1343,187Z"/><path class="cls-22" d="M1359.34,180.08l-3.52,3.5,1.92,1.94a3.13,3.13,0,0,0,.86.69.46.46,0,0,0,.51-.16.58.58,0,0,0,.19-.64,3.74,3.74,0,0,0-.79-1l-1.18-1.18,2.58-2.56.66.66a7.78,7.78,0,0,1,1.16,1.38,3.54,3.54,0,0,1,.46,1.43,3.42,3.42,0,0,1-.22,1.73,5.43,5.43,0,0,1-1.23,1.72,5.92,5.92,0,0,1-1.77,1.26,3.28,3.28,0,0,1-1.7.34,3.37,3.37,0,0,1-1.47-.45,8.65,8.65,0,0,1-1.65-1.38l-2.59-2.6a6.35,6.35,0,0,1-1.52-2.17,3.06,3.06,0,0,1,0-2.07,5.92,5.92,0,0,1,3.62-3.45,3.39,3.39,0,0,1,2.19.12,7.45,7.45,0,0,1,2.31,1.71Zm-4.18,1.26-.65-.66a5,5,0,0,0-1-.82.43.43,0,0,0-.51.1c-.18.19-.24.36-.17.52a5.16,5.16,0,0,0,.85,1l.65.65Z"/><path class="cls-22" d="M1365,170.9l-2.41,2.4-.48-.49a3.7,3.7,0,0,0-.85-.71c-.16-.07-.33,0-.52.18a.57.57,0,0,0-.19.5,1,1,0,0,0,.33.56,3.45,3.45,0,0,0,.66.55,1.32,1.32,0,0,0,.76.08,10.29,10.29,0,0,0,1.84-.5,6.16,6.16,0,0,1,2.64-.46,3.55,3.55,0,0,1,1.85,1.12,5.24,5.24,0,0,1,1.36,1.93,2.62,2.62,0,0,1-.1,1.8,5.45,5.45,0,0,1-1.3,1.89,6.29,6.29,0,0,1-2.09,1.44,2.74,2.74,0,0,1-1.89.13,5.54,5.54,0,0,1-1.94-1.39l-.42-.44,2.41-2.39.56.56a4.57,4.57,0,0,0,1,.85.51.51,0,0,0,.57-.14.7.7,0,0,0,.27-.55,1.51,1.51,0,0,0-.5-.72c-.42-.43-.74-.65-.94-.66a18.23,18.23,0,0,0-2.54.62,5,5,0,0,1-2.67.23,4.22,4.22,0,0,1-1.56-1,4.88,4.88,0,0,1-1.29-1.86,2.57,2.57,0,0,1,.18-1.74,5.71,5.71,0,0,1,1.3-1.84,6.25,6.25,0,0,1,1.73-1.28,3.4,3.4,0,0,1,1.55-.36,2.25,2.25,0,0,1,1.09.29,6.75,6.75,0,0,1,1.06.92Z"/><path class="cls-22" d="M1373.6,163.56,1371,166l-1-1.06a2.82,2.82,0,0,0-.8-.66.52.52,0,0,0-.68.59,3.28,3.28,0,0,0,.65.86l4.08,4.32a2.14,2.14,0,0,0,.82.62.53.53,0,0,0,.59-.1.52.52,0,0,0,.15-.61,4.39,4.39,0,0,0-.82-1.07l-1-1.09,2.48-2.34a19.23,19.23,0,0,1,1.48,1.72,3.8,3.8,0,0,1,.6,1.56,3.46,3.46,0,0,1-.2,1.83,6.05,6.05,0,0,1-3.54,3.12,3,3,0,0,1-2-.21,7.81,7.81,0,0,1-2.24-1.8l-2.46-2.61a6.76,6.76,0,0,1-1.42-2,3.12,3.12,0,0,1,0-2,4.81,4.81,0,0,1,1.43-2.22,4.89,4.89,0,0,1,2.3-1.3,3.16,3.16,0,0,1,2.13.2A8.49,8.49,0,0,1,1373.6,163.56Z"/><path class="cls-22" d="M1379.77,152.05l8.12,9.63-3,2.52-.62-.84a2.67,2.67,0,0,1-.14,1.36,2.64,2.64,0,0,1-.82,1.11,3,3,0,0,1-1.29.69,2,2,0,0,1-1.17-.07,3,3,0,0,1-.93-.59c-.27-.25-.75-.79-1.45-1.61l-5.48-6.51,2.94-2.47,5.52,6.56a9,9,0,0,0,1.2,1.28.45.45,0,0,0,.55-.1c.22-.19.29-.37.21-.55a12.67,12.67,0,0,0-1.12-1.45l-5.47-6.49Z"/><path class="cls-22" d="M1394.84,152.26,1390.2,154l1,2.55a3,3,0,0,0,.51,1,.49.49,0,0,0,.53.06.58.58,0,0,0,.43-.51,3.76,3.76,0,0,0-.31-1.24l-.59-1.56,3.4-1.28.33.87a8.12,8.12,0,0,1,.5,1.73,3.73,3.73,0,0,1-.17,1.49,3.3,3.3,0,0,1-.91,1.49,5.31,5.31,0,0,1-1.82,1.07,6,6,0,0,1-2.13.43,3.56,3.56,0,0,1-1.7-.38,3.62,3.62,0,0,1-1.15-1,9.11,9.11,0,0,1-.94-1.93l-1.3-3.44a6.18,6.18,0,0,1-.51-2.6,3,3,0,0,1,.85-1.88,5.09,5.09,0,0,1,2-1.31,5.29,5.29,0,0,1,2.71-.37,3.4,3.4,0,0,1,1.95,1,7.62,7.62,0,0,1,1.41,2.51Zm-4.32-.55-.33-.86a4.31,4.31,0,0,0-.55-1.15.41.41,0,0,0-.5-.11c-.24.09-.37.22-.37.4a5.11,5.11,0,0,0,.37,1.25l.33.86Z"/><path class="cls-22" d="M1410.88,143.69l2.71.81a22.3,22.3,0,0,1,3.61,1.32,2.67,2.67,0,0,1,1.24,1.54,5.16,5.16,0,0,1-.22,2.93,4.58,4.58,0,0,1-1.13,2.18,2.36,2.36,0,0,1-1.9.2,3,3,0,0,1,1.3,1.22,2.37,2.37,0,0,1,.23,1,15.34,15.34,0,0,1-.57,2.21L1415,161l-3.55-1.08,1.47-4.89a3.48,3.48,0,0,0,.26-1.52c-.07-.22-.37-.42-.89-.58l-2,6.64-3.83-1.15Zm3.07,3.67-1,3.27a1.74,1.74,0,0,0,1,.1c.21-.07.41-.42.61-1.07l.24-.81a1.32,1.32,0,0,0,0-1A1.54,1.54,0,0,0,1414,147.36Z"/><path class="cls-22" d="M1426,161.56l-4.06-2.87-1.57,2.22a3.17,3.17,0,0,0-.54,1,.48.48,0,0,0,.25.48.57.57,0,0,0,.66.07,3.49,3.49,0,0,0,.85-1l1-1.36,3,2.1-.53.77a8.92,8.92,0,0,1-1.16,1.38,3.73,3.73,0,0,1-1.34.69,3.42,3.42,0,0,1-1.74.08,5.23,5.23,0,0,1-1.9-.92,6.07,6.07,0,0,1-1.55-1.52,3.54,3.54,0,0,1-.63-1.63,3.46,3.46,0,0,1,.2-1.51,8.57,8.57,0,0,1,1.07-1.87l2.13-3a6.33,6.33,0,0,1,1.87-1.87,3.08,3.08,0,0,1,2-.34,5.07,5.07,0,0,1,2.2.93,5.22,5.22,0,0,1,1.82,2,3.41,3.41,0,0,1,.26,2.18,7.5,7.5,0,0,1-1.3,2.56Zm-2-3.9.54-.75a4.78,4.78,0,0,0,.64-1.09.42.42,0,0,0-.18-.48c-.22-.16-.4-.19-.55-.09a5,5,0,0,0-.83,1l-.53.75Z"/><path class="cls-22" d="M1430.91,164.91l-2.5-2.59.61-.58a6.07,6.07,0,0,1,1.85-1.33,3.22,3.22,0,0,1,2,0,6.37,6.37,0,0,1,3.82,4.07,2.76,2.76,0,0,1-.39,2,26.76,26.76,0,0,1-2.83,3l-4.55,4.39-2.6-2.68.81-.78a2.54,2.54,0,0,1-1.36.05,2.5,2.5,0,0,1-1.16-.72,3.2,3.2,0,0,1-.88-1.72c-.12-.66.28-1.44,1.2-2.32l.74-.72a3,3,0,0,1,1.7-1,6.4,6.4,0,0,1,2.4.76,6.26,6.26,0,0,0,2.12.76,2.61,2.61,0,0,0,.84-.63,3.58,3.58,0,0,0,.83-1,.51.51,0,0,0-.13-.56.45.45,0,0,0-.52-.17,5.35,5.35,0,0,0-1,.84Zm-.4,2.08a2.81,2.81,0,0,0-1.55,0,4.54,4.54,0,0,0-1,.8,3.87,3.87,0,0,0-.82,1,.48.48,0,0,0,.15.56.47.47,0,0,0,.49.19,3.86,3.86,0,0,0,.92-.74Z"/><path class="cls-22" d="M1443.83,167.59l-11.07,10.67-2.74-2.84,11.07-10.67Z"/><path class="cls-22" d="M1447.73,172.05l-1.49,1.34-2.65-2.93,1.48-1.34Zm-2.06,1.86-9.33,8.47-2.66-2.93L1443,171Z"/><path class="cls-22" d="M1451.4,176.77l-1.41,1.39.72.74-1.42,1.4-.73-.74-4.81,4.73c-.59.58-.89.93-.9,1.06s.21.41.65.86l-1.45,1.43-1.08-1.11a10.31,10.31,0,0,1-1.24-1.41,2,2,0,0,1-.33-1.06,1.72,1.72,0,0,1,.27-1,15.93,15.93,0,0,1,1.63-1.75l4.57-4.48-.58-.6,1.42-1.39.58.59,1.42-1.39Z"/><path class="cls-22" d="M1459.54,186.12l-7.45,5.37c-1.18.85-2,1.41-2.47,1.68a3.08,3.08,0,0,1-1.35.45,2.23,2.23,0,0,1-1.32-.32,8,8,0,0,1-1.76-1.54l-1.57-1.71,1.48-1.37a4.56,4.56,0,0,0,.84.79.38.38,0,0,0,.47-.09,10,10,0,0,0,.81-1.06l6.33-8.7,2.36,2.56-5.4,6.7,6.68-5.32Z"/></g></svg>