<svg id="Layer_1" data-name="Layer 1" xmlns="http://www.w3.org/2000/svg" viewBox="0 0 132 101"><defs><style>.cls-1{fill:#fff;}</style></defs><path d="M65.45,52.22v43.9h-2.6V7.21H99.43c15,0,26.41,7.69,26.41,22.2,0,11.78-6.08,19.59-19.84,21.7,11.66,2.23,19.1,8.18,19.1,25.29v1.12c0,10.29.24,16.24.86,18.6h-2.72c-.87-4.22-.87-9.8-.87-18.6V76.4c0-15-5.58-24.18-27.53-24.18Zm0-2.35H95.34c17.6,0,27.77-5.58,27.77-20.21,0-13-9.67-20.09-24.92-20.09H65.45Z"/><path class="cls-1" d="M90,50C89,78.84,70.2,97,47,97S5,76,5,50,23.8,3,47,3,91,22.23,90,50Z"/><path d="M7.66,5.21H39.15c26.41,0,45.63,18.1,45.63,42.65,0,27.53-18.23,46.25-45.38,46.25H7.66Zm2.6,86.55H38.78c27.28,0,43.27-19.47,43.27-43.65S63.08,7.56,38.9,7.56H10.26Z"/></svg>