<svg id="Layer_1" data-name="Layer 1" xmlns="http://www.w3.org/2000/svg" viewBox="0 0 132 101"><defs><style>.cls-1{fill:none;}</style></defs><path class="cls-1" d="M89,48.87h5.34c17.6,0,27.77-5.58,27.77-20.21,0-13-9.67-20.09-24.92-20.09H68.57C81,16.44,89.61,30.84,89,48.87Z"/><path d="M61.85,95.12h2.6V91.74c-.85.42-1.72.81-2.6,1.17Z"/><path d="M124.1,76.52V75.4c0-17.11-7.44-23.06-19.1-25.29,13.76-2.11,19.84-9.92,19.84-21.7,0-14.51-11.41-22.2-26.41-22.2H64.33a42.79,42.79,0,0,1,4.24,2.36H97.19c15.25,0,24.92,7.07,24.92,20.09,0,14.63-10.17,20.21-27.77,20.21H89V49q0,1.13-.12,2.22h5c22,0,27.53,9.18,27.53,24.18v1.12c0,8.8,0,14.38.87,18.6H125C124.34,92.76,124.1,86.81,124.1,76.52Z"/><path d="M6.66,4.21H38.15c26.41,0,45.63,18.1,45.63,42.65,0,27.53-18.23,46.25-45.38,46.25H6.66Zm2.6,86.55H37.78c27.28,0,43.27-19.47,43.27-43.65S62.08,6.56,37.9,6.56H9.26Z"/></svg>