<svg id="Layer_1" data-name="Layer 1" xmlns="http://www.w3.org/2000/svg" viewBox="0 0 231 209"><defs><style>.cls-1{fill:#fff;}</style></defs><path class="cls-1" d="M107.13,194.76a.72.72,0,0,1-.66-.4L13.35,16.53a.71.71,0,0,1,0-.73.74.74,0,0,1,.63-.38l.2,0L207.48,65.11a.73.73,0,0,1,.56.65.72.72,0,0,1-.42.76L141.47,98.25l75.46,66.56a2.13,2.13,0,0,1,.73,1.48,2.08,2.08,0,0,1-.54,1.56l-15,17a2.16,2.16,0,0,1-3.05.19l-75.15-66.3-16,75.41A.73.73,0,0,1,107.13,194.76Z"/><path d="M15.46,17.32,205.12,66.05,142.87,95.91l-4.09,2,3.4,3,73.76,65.06a.65.65,0,0,1,.22.46.62.62,0,0,1-.16.47l-15,17a.64.64,0,0,1-.49.23.67.67,0,0,1-.44-.17l-73.23-64.6L123,115.94l-1.07,5-15.07,70.87L15.46,17.32M14,13.92a2.26,2.26,0,0,0-2,3.3l93.13,177.84a2.2,2.2,0,0,0,2,1.2,2.23,2.23,0,0,0,2.22-1.78l15.5-72.9,73.23,64.6a3.65,3.65,0,0,0,5.16-.32l15-17a3.65,3.65,0,0,0-.32-5.16L144.16,98.62l64.11-30.75a2.25,2.25,0,0,0-.42-4.21L14.58,14a2.38,2.38,0,0,0-.58-.08Z"/></svg>